<?xml version="1.0" encoding="UTF-8" standalone="no"?>
<!-- Created with Inkscape (http://www.inkscape.org/) -->

<svg
   width="16.948805mm"
   height="24.249619mm"
   viewBox="0 0 16.948805 24.249619"
   version="1.1"
   id="svg1"
   xml:space="preserve"
   inkscape:version="1.4 (86a8ad7, 2024-10-11)"
   sodipodi:docname="favicon.svg"
   xmlns:inkscape="http://www.inkscape.org/namespaces/inkscape"
   xmlns:sodipodi="http://sodipodi.sourceforge.net/DTD/sodipodi-0.dtd"
   xmlns="http://www.w3.org/2000/svg"
   xmlns:svg="http://www.w3.org/2000/svg"><sodipodi:namedview
     id="namedview1"
     pagecolor="#ffffff"
     bordercolor="#000000"
     borderopacity="0.25"
     inkscape:showpageshadow="2"
     inkscape:pageopacity="0.0"
     inkscape:pagecheckerboard="0"
     inkscape:deskcolor="#d1d1d1"
     inkscape:document-units="mm"
     inkscape:zoom="0.72604517"
     inkscape:cx="215.55133"
     inkscape:cy="98.478721"
     inkscape:window-width="1920"
     inkscape:window-height="1017"
     inkscape:window-x="-8"
     inkscape:window-y="-8"
     inkscape:window-maximized="1"
     inkscape:current-layer="layer1" /><defs
     id="defs1"><style
       type="text/css"
       id="style1">
   <![CDATA[
    .fil0 {fill:#211D1E}
   ]]>
  </style></defs><g
     inkscape:label="Capa 1"
     inkscape:groupmode="layer"
     id="layer1"
     transform="translate(-48.076784,-122.47637)"><g
       style="clip-rule:evenodd;fill-rule:evenodd;image-rendering:optimizeQuality;shape-rendering:geometricPrecision;text-rendering:geometricPrecision"
       id="g1"
       transform="matrix(0.0101561,0,0,0.0101561,48.077089,122.47607)"><g
         id="Capa_x0020_1"
         inkscape:label="Capa 1"
         inkscape:groupmode="layer">
  <metadata
   id="CorelCorpID_0Corel-Layer" />
  <path
   class="fil0"
   d="m 963.03,1968.05 c 0,-12.18 3.79,-20.97 10.88,-27.07 26.01,-24.36 48.25,2.71 118.25,8.12 41.62,3.39 77.1,16.25 110.21,32.48 35.95,17.6 80.41,75.8 80.41,119.79 0,119.11 10.88,104.9 -62.44,104.9 -3.79,-15.57 -59.13,-59.56 -74.27,-77.83 -31.69,-38.57 -71.9,-81.21 -116.83,-102.18 -17.03,-8.12 -66.23,-38.58 -66.23,-58.21 z m -105,-214.53 c 12.77,8.79 25.54,25.72 33.58,38.58 76.63,123.85 -113.52,207.77 -90.81,52.11 2.84,-21.65 6.14,-39.93 15.61,-55.49 13.24,-21.66 22.23,-30.45 41.63,-35.19 z m 105,95.42 c 0,-31.13 6.63,-43.31 18.92,-61.59 24.12,2.04 55.34,8.8 81.36,9.48 56.28,1.35 85.61,21.65 120.13,60.91 23.18,25.72 36.9,43.99 36.9,67.67 0,35.19 -39.27,6.09 -52.98,0.68 -156.09,-59.56 -204.34,5.42 -204.34,-77.16 z m -266.78,29.11 c -14.66,-22.33 -47.77,-58.2 -45.4,-75.13 0.47,-3.38 36.89,-68.35 54.86,-68.35 0.47,0 77.58,26.4 69.06,73.77 -7.1,41.96 -35.48,68.35 -78.52,69.71 z m 695.8,-95.43 c 0,-0.67 4.73,-9.47 5.67,-10.15 l 14.66,10.83 -15.61,13.54 c -6.14,-12.86 -4.73,4.06 -4.73,-14.22 z m -867.5,-9.47 c 0,-9.47 33.11,-58.88 52.51,-71.74 55.34,12.86 63.38,37.9 43.04,104.9 -16.55,54.14 -95.55,36.55 -95.55,-33.16 z m -105,-24.36 c 0,-32.49 30.27,-63.62 61.96,-66.32 17.97,33.83 14.19,29.1 14.19,71.06 0,56.84 -76.15,85.27 -76.15,-4.74 z m 324,-33.16 c 0.47,-10.15 3.32,-27.75 7.1,-35.87 8.99,-20.98 5.2,-3.39 16.08,-22.34 17.03,-28.42 -10.88,-27.75 24.6,-51.43 28.86,6.76 47.77,59.55 52.03,86.63 0,0.67 2.37,20.3 2.37,20.97 0,0.68 0,2.71 0,3.39 -0.47,14.89 -14.67,21.66 -44.94,41.29 -24.12,-15.57 -33.59,-17.6 -57.24,-42.63 z m -424.29,71.73 c 23.18,-43.31 -1.42,-46.69 27.44,-77.82 20.81,-22.33 18.91,-45.34 39.26,-60.23 21.76,31.8 5.2,56.84 -6.63,97.45 -17.5,59.56 -20.81,66.32 -60.07,40.61 z m 1020.27,-95.42 c 8.52,-12.18 17.03,-29.78 28.86,-37.9 17.97,9.47 32.63,23.68 52.5,28.43 v 14.21 z m -226.09,40.61 c 12.77,12.18 14.66,2.71 16.55,25.72 -23.18,8.79 2.36,0.68 -14.66,9.47 -25.07,12.18 -52.03,2.03 -84.67,-5.42 -130.55,-29.78 -70.48,1.36 -104.07,-48.05 -16.08,-23.69 -25.54,-18.94 -25.54,-55.49 0,-27.07 43.05,-20.3 66.7,-19.62 52.97,2.71 36.89,12.18 69.52,26.39 13.73,6.09 20.82,5.42 34.06,13.54 23.18,14.21 24.12,37.22 42.1,53.47 z m -493.82,-78.5 c 0,-13.54 12.77,-17.6 20.34,-27.75 11.35,-16.25 4.73,-16.25 11.83,-31.13 l 44.46,-46.02 c 24.6,12.86 15.14,8.12 28.86,32.48 27.43,49.41 9.93,48.05 0.95,73.1 -16.09,43.31 10.41,33.83 -58.65,70.38 -4.73,-2.71 -9.93,-5.42 -15.13,-8.12 -27.44,-14.89 -32.64,-8.79 -32.64,-62.94 z M 271.96,1606 c 0,-43.99 70.95,-81.21 95.08,9.47 -7.09,10.83 -16.08,22.33 -23.65,33.84 -37.37,53.47 -71.42,6.08 -71.42,-43.31 z m 142.85,-4.74 c 0,-31.81 26.96,-49.41 33.59,-76.48 9.93,7.44 11.83,11.5 17.02,26.39 8.99,27.08 13.24,39.26 3.79,66.32 -6.63,18.95 -7.1,10.15 -11.35,26.4 H 429 c -8.98,-12.86 -14.19,-19.63 -14.19,-42.63 z m 624.37,0 c -14.2,27.75 -11.35,20.97 -43.99,15.56 -43.52,-6.08 -110.21,10.15 -127.24,-62.94 8.99,-6.76 12.78,-14.21 23.65,-14.21 31.7,0 82.78,0 104.54,14.21 5.68,3.39 44.47,36.55 43.05,47.38 z m -300.36,-56.85 c 0,-13.54 7.56,-50.08 14.19,-58.2 7.1,-8.12 18.92,-6.77 43.05,-23.01 4.25,7.44 14.66,21.65 14.66,28.43 0,31.8 3.78,50.08 -20.82,75.12 -15.13,15.57 -26.49,15.57 -41.15,15.57 -3.32,-13.54 -9.93,-24.36 -9.93,-37.9 z m -433.75,-48.05 c 25.07,-6.77 17.51,-18.95 43.05,-56.85 13.72,2.71 26.96,13.54 43.04,23.01 3.31,2.03 8.04,4.74 11.83,7.44 l 7.57,6.76 c 6.62,8.12 8.99,10.15 8.99,24.37 0,31.8 -18.45,67 -52.51,67 -5.67,-15.57 0,-4.07 -15.13,-18.27 -30.28,-27.75 -23.65,-37.9 -46.83,-43.99 v -9.47 z m 314.55,48.05 c 0,-16.93 0.47,-27.08 4.73,-38.58 6.63,-18.95 5.21,-8.8 15.14,-23.01 11.35,-15.57 13.24,-43.31 37.37,-43.31 11.83,0 38.31,8.8 38.31,23.69 0,44.66 -9.46,39.93 -32.64,67.67 -14.66,17.6 -8.03,10.15 -33.59,13.54 -25.07,3.39 -11.34,2.03 -29.32,14.21 0,45.34 5.2,36.55 -15.61,64.98 -10.41,14.89 -17.03,39.25 -36.42,44.66 -4.26,-16.92 -9.93,-16.24 -9.93,-33.83 0,-27.76 15.61,-14.22 26.01,-54.82 7.57,-31.13 5.21,-28.43 35.95,-35.19 z m 257.79,-90.69 c 30.75,-14.89 43.99,-4.06 77.11,-1.35 8.51,1.35 51.56,-6.09 51.56,39.26 0,54.13 -85.61,4.06 -88.92,2.71 -39.74,-9.48 -51.09,5.41 -39.74,-40.62 z m -214.74,-38.57 c 0,-68.36 29.32,-73.77 30.74,-78.51 0.47,-1.35 1.89,-1.35 2.84,-2.03 l 17.03,11.51 c 0.47,0.67 1.89,1.35 2.36,2.03 0.95,0.68 1.89,2.03 2.36,2.71 19.87,18.94 53.93,52.79 54.4,79.18 -31.7,0 -30.28,-6.09 -52.98,-8.8 -20.33,-3.38 -36.42,-6.08 -56.75,-6.08 z M 228.92,1220.23 c 0,-13.54 51.08,-49.4 54.39,-50.76 23.18,-6.76 19.87,4.74 42.1,-10.15 10.41,-7.44 16.55,-16.25 31.21,-20.98 13.73,-5.42 29.8,-1.35 48.25,-4.74 22.23,-3.38 19.4,-32.48 124.41,-32.48 50.14,0 59.12,-5.42 95.07,18.94 -7.56,32.49 -14.66,35.2 -37.84,52.12 l -69.52,45.34 c -9.46,7.44 -5.21,3.39 -11.83,12.18 -6.15,8.12 -9.93,15.57 -17.51,25.05 -16.55,22.33 -39.73,43.98 -25.07,70.38 12.77,-3.39 10.88,-2.71 18.92,-9.47 l 46.83,-39.26 c 8.98,-6.76 58.17,-41.95 67.63,-41.95 14.66,0 90.82,-14.9 34.06,62.26 l -19.87,33.16 c -12.77,19.62 -21.76,53.47 -23.65,81.21 -0.95,16.25 2.37,34.52 -1.89,50.09 -8.52,28.42 -18.44,5.41 -26.96,77.82 -3.31,28.43 -8.52,17.6 -14.19,38.58 l -41.63,-34.52 c -21.75,-23.01 3.79,-32.48 -71.42,-81.21 l -8.51,-5.42 c -39.74,-23.68 -40.21,-51.43 -17.98,-66.32 18.45,-12.18 3.79,7.45 21.29,-16.24 30.28,-40.61 26.01,-15.57 32.64,-43.99 -12.77,-6.76 3.78,-4.74 -14.66,-4.74 -57.24,0 -39.74,62.27 -99.81,75.8 -7.56,-20.3 -1.42,-1.35 -7.09,-11.5 -13.72,-25.04 -5.21,-41.96 -39.74,-79.86 -68.58,-75.8 -67.63,-36.55 -67.63,-89.34 z m 891.61,-123.85 c -1.89,19.62 3.79,7.44 -6.62,16.92 -12.77,12.18 -35.48,2.71 -53.46,-4.74 -3.78,-1.35 -25.07,-13.54 -27.43,-15.57 -17.5,-13.54 -22.23,-40.61 -22.23,-68.35 0,-12.86 7.1,-14.21 14.19,-18.95 18.92,39.26 -22.22,90.69 95.55,90.69 z m -76.15,-76.48 h 18.92 c -2.37,27.75 -8.99,11.5 4.73,37.9 29.79,0 38.31,-19.62 38.31,4.74 0,13.54 -30.27,9.47 -47.77,9.47 -4.25,-7.44 -14.19,-20.97 -14.19,-28.42 z M 981.94,829.05 c 26.49,0 44.94,-26.4 72.84,-6.09 34.53,25.72 61.96,69.03 104.06,87.31 26.02,11.5 40.21,16.92 47.3,47.37 38.32,-25.04 4.74,-71.06 -37.84,-80.53 5.68,-22.33 31.7,-25.72 52.98,-25.72 37.84,-0.68 31.21,2.71 58.17,18.95 19.87,11.5 44.94,10.82 60.07,20.97 7.1,4.07 27.91,34.52 33.59,42.64 -7.57,11.5 -12.77,15.56 -14.19,33.83 35.95,18.95 67.16,23.01 95.08,52.12 -5.21,23.01 -9.46,25.04 -18.92,42.63 4.26,5.42 8.04,9.47 12.3,16.92 23.65,44.67 2.36,65.65 -46.36,56.17 -19.86,-4.06 -23.18,-15.57 -37.37,-15.57 -13.24,0 -27.9,14.22 -61.96,14.22 -4.73,18.94 -14.19,37.9 -38.31,37.9 -22.71,0 -31.7,-1.35 -44.47,-22.33 -23.65,-39.26 -36.89,-5.42 -66.69,-66.32 -12.77,-26.4 -19.87,-46.02 -40.67,-64.3 l -5.21,-4.74 c -11.35,-10.15 -15.61,-32.48 -33.59,-32.48 -116.35,0 -63.38,16.92 -128.65,33.16 -33.11,8.11 -16.56,2.03 -35,22.33 -13.72,14.89 -15.61,8.12 -26.96,25.04 27.43,14.89 19.86,4.06 46.35,10.83 16.09,4.74 13.25,14.21 33.59,23.69 9.93,4.74 33.11,9.47 39.26,17.6 23.18,29.78 -12.3,33.83 52.51,33.83 -0.95,33.16 -7.1,9.48 -9.46,37.9 15.13,10.83 12.77,7.45 25.54,22.34 29.8,35.19 55.82,5.42 78.52,4.74 38.78,-1.36 81.35,54.81 86.56,68.35 17.5,-12.86 2.84,3.39 10.88,-17.6 l 17.5,-58.2 c 16.55,3.38 37.37,16.92 48.72,27.07 16.08,15.57 4.25,31.81 27.43,48.73 17.98,-33.84 -2.36,-85.28 28.86,-85.28 35,0 47.3,45.35 73.32,69.03 34.06,31.13 -5.68,29.11 38.31,57.53 32.17,20.3 22.23,35.87 37.37,57.52 4.73,7.44 20.34,15.57 27.43,20.3 0,76.48 33.11,49.41 33.11,90.69 0,31.8 -3.78,69.02 -18.92,100.16 -19.86,-14.21 0.96,-14.89 -26.49,-30.45 -14.19,-8.12 -26.49,-9.47 -40.2,-17.6 -33.59,-18.94 -37.37,-23.01 -43.99,-55.49 -0.47,-1.36 -2.36,-4.74 -2.36,-7.44 -1.42,-14.22 2.36,-9.47 -15.13,-18.27 -6.63,-3.39 -12.3,-3.39 -22.23,-6.09 -39.73,-10.82 -43.52,-55.49 2.84,-55.49 31.22,0 39.26,28.43 52.51,48.05 13.72,-3.38 33.1,-12.18 33.1,-29.1 0,-16.93 -29.32,-15.57 -70.95,-62.27 -0.95,-0.68 -1.89,-1.35 -2.36,-2.03 l -11.83,-12.18 c -0.95,-0.68 -1.89,-1.36 -2.84,-2.03 -10.88,-6.77 -20.34,-6.77 -35.95,-6.77 -42.09,0 -80.89,66.32 -80.89,104.9 0,81.21 87.04,46.02 114.95,84.6 3.78,5.42 16.55,36.54 18.44,43.99 24.12,0 34.06,5.41 54.4,12.18 l 41.15,25.72 c 20.82,0 32.64,-16.93 50.61,-3.39 20.82,15.57 5.68,41.29 -10.87,52.79 -3.79,2.71 -3.79,2.71 -8.99,5.42 -32.17,16.25 -39.26,3.39 -40.2,2.71 -45.41,-23.69 -68.12,-48.73 -130.55,-50.08 -28.39,-0.68 -62.91,27.75 -70.01,54.81 -15.13,-1.35 -28.38,-8.79 -28.38,-24.36 0,-75.13 -3.79,-36.55 21.75,-72.42 11.83,-16.24 -13.24,-20.3 -26.49,-23.01 -25.54,-4.74 -35,-18.27 -57.7,-28.43 -42.58,-18.26 -13.25,-60.91 -35,-88.66 -17.51,-22.33 -37.37,0 -26.97,-44.66 19.4,4.74 32.64,12.86 52.51,14.21 0,-48.73 -9.46,-61.59 -35,-87.98 l -14.66,-14.22 c -0.95,-1.35 -3.79,-4.06 -4.74,-5.42 -27.9,-27.07 -84.67,-35.86 -61.96,9.48 4.26,8.12 3.78,8.12 10.41,14.21 15.61,13.54 26.49,14.22 36.89,33.84 l 7.1,31.13 c -6.15,6.08 -9.93,-2.04 -10.88,-2.71 -11.83,-6.77 -2.84,-1.36 -10.41,-8.8 -9.93,-8.12 -13.72,-12.18 -23.65,-19.62 l -44.47,-41.29 c -8.03,-10.83 -8.98,-14.21 -18.44,-24.36 l -24.12,-18.95 c -25.07,-14.89 -62.91,-37.9 -93.19,-23.69 -13.24,6.77 -16.55,15.57 -28.38,24.37 -23.18,15.57 -17.98,17.6 -17.98,53.47 51.56,-4.74 51.08,-50.76 116.84,-16.93 19.39,9.48 42.57,38.58 59.13,55.5 20.81,21.65 39.73,41.28 65.27,58.2 17.51,12.18 39.73,23.69 39.73,50.76 0,18.27 -1.89,29.1 -14.19,37.9 -18.44,-13.54 -11.83,-28.43 -32.16,-43.31 -20.34,-15.57 -45.41,-27.75 -65.28,-45.34 -5.67,-4.74 -4.25,-3.39 -8.99,-9.47 -58.64,-73.1 -52.97,-25.72 -84.19,-25.72 -16.56,0 -14.67,-18.95 -90.82,-18.95 -65.74,0 -46.36,49.41 -105.48,-4.06 -31.69,-28.43 -46.82,-92.72 -46.82,-138.74 0,-14.89 47.76,-58.2 61.96,-62.26 -2.85,-4.07 -3.79,-6.09 -7.57,-11.51 -7.57,-9.47 -3.78,-3.39 -8.99,-10.15 l -12.77,-25.04 c -13.24,-37.22 -17.02,-20.3 -32.63,-43.99 3.31,-11.5 44.46,-55.49 56.28,-72.41 25.54,-36.55 54.4,-12.86 96.02,-12.86 3.31,-13.54 9.93,-19.63 9.93,-29.11 0,-58.88 -95.55,-39.93 -95.55,-75.8 0,-12.86 4.73,-23.69 18.92,-23.69 88.45,0 93.65,37.9 133.86,37.9 0.95,-15.57 3.31,-16.24 7.09,-31.12 3.31,-12.19 4.74,-20.3 7.1,-31.13 26.01,-6.09 14.66,0 37.84,0 z M 414.8,1082.16 c -88.45,51.44 -68.58,10.83 -113.05,43.99 -24.12,18.27 -32.64,11.51 -58.65,22.33 -17.97,8.12 -30.75,18.95 -57.24,18.95 -27.9,0 9.46,-52.12 9.93,-52.12 4.74,-11.5 6.63,-23.01 9.46,-37.9 2.84,-14.21 5.2,-27.07 11.35,-41.29 17.02,-41.28 12.3,-18.94 12.3,-83.24 0,-27.75 -66.7,-133.33 47.77,-133.33 64.8,0 82.31,23.69 100.27,28.43 16.08,4.74 36.42,2.71 53.45,8.12 13.73,4.74 28.39,14.89 42.1,20.3 17.5,6.09 33.11,10.15 47.77,18.95 20.34,12.86 13.72,11.5 41.15,20.97 73.79,25.05 85.14,88.67 22.23,100.85 -86.56,16.92 -34.53,6.76 -118.25,39.25 -15.61,5.42 -36.89,17.61 -50.61,25.72 z M 939.36,776.94 c 0,-33.16 35.48,-12.86 47.77,-4.74 -8.03,11.51 -14.19,18.95 -33.58,18.95 -10.88,0 -14.2,-3.39 -14.2,-14.22 z M 147.55,748.51 c 9.46,-14.21 19.87,-26.39 31.7,-39.93 l 40.67,-45.34 c 15.13,-16.25 10.41,-14.22 19.4,-33.16 7.09,-15.57 20.81,-27.07 25.54,-41.29 6.62,-20.98 3.31,-37.22 14.19,-57.52 18.92,-35.87 43.05,-33.84 50.14,-83.25 2.84,-22.33 10.88,-31.12 23.65,-42.63 33.59,7.44 56.76,36.55 75.68,57.53 l 44.47,46.01 c 17.5,17.61 26.01,23.01 40.67,45.35 6.15,8.79 10.41,18.94 15.14,27.75 9.45,16.24 11.34,14.21 20.33,27.07 26.49,35.87 -22.71,23.69 49.66,79.18 46.83,35.87 79,138.06 46.83,162.42 -39.26,29.11 -75.21,-18.27 -111.63,-21.65 -21.29,-1.36 -36.42,2.03 -52.03,-5.42 -9.93,-4.07 -24.12,-18.27 -33.59,-18.27 -19.4,0 -14.66,18.95 -33.59,18.95 -48.72,0 -27.9,-18.95 -67.63,-27.08 C 323.97,792.49 297,794.52 278.09,784.37 190.59,737 213.29,783.02 147.54,748.5 Z M 972,644.29 c 24.12,29.78 24.6,8.12 24.6,60.91 -18.91,-1.35 -36.42,-21.65 -56.76,-43.31 L 841.46,544.81 c -16.08,-18.94 -12.3,-54.81 34.06,-4.74 l 96.49,104.22 z M 383.11,374.94 324.93,318.77 c -8.99,-7.44 -8.52,-6.76 -17.03,-16.24 -36.89,-41.29 -69.52,-54.14 -69.52,-78.51 0,-10.82 3.78,-10.15 9.45,-18.94 31.22,2.71 53.46,41.95 82.31,70.38 7.57,7.44 11.83,11.51 18.45,19.62 l 19.86,18.27 c 61.96,48.05 26.5,16.25 75.22,62.95 34.52,32.48 49.19,37.9 85.14,77.15 l 33.1,33.16 c 0.95,0.68 1.89,1.36 2.85,2.03 7.56,7.45 12.77,11.51 20.81,17.61 68.59,46.01 144.74,146.18 216.17,198.29 15.61,11.5 27.9,19.62 40.2,36.54 15.62,20.3 24.6,19.63 35.48,35.87 -25.54,34.52 -54.86,14.89 -79.93,-6.08 L 701,671.38 c -0.47,-0.68 -1.42,-1.36 -2.36,-2.04 -0.47,-0.67 -1.43,-1.35 -2.37,-2.03 -2.36,-2.71 -3.31,-3.38 -7.09,-7.44 l -20.82,-17.6 c -24.6,-20.3 -30.74,-30.45 -52.97,-56.17 L 495.72,481.2 c -7.57,-5.41 -12.77,-9.47 -20.82,-16.92 l -14.66,-18.95 c -12.3,-16.24 -8.52,-6.08 -20.34,-17.6 -17.97,-16.92 -5.2,-14.21 -13.72,-24.36 -13.72,-17.6 -15.61,4.74 -43.04,-28.43 z M 989.5,602.34 778.53,299.14 c -8.04,-12.18 -39.73,-74.45 -39.73,-89.34 0,-6.09 16.55,-22.33 33.11,5.42 55.81,93.39 31.21,54.14 124.87,141.44 l 12.77,11.51 c 5.67,5.42 11.83,10.15 17.5,16.24 5.68,5.42 7.1,8.12 13.72,14.22 5.21,5.42 4.74,4.74 9.93,9.47 67.17,61.59 40.68,60.23 78.05,98.14 71.42,73.77 34.53,42.63 83.25,106.93 34.52,46.01 51.56,92.03 78.04,146.18 25.07,51.44 -19.4,83.92 -74.73,41.29 -8.52,-6.76 -46.83,-39.26 -50.14,-49.41 -3.79,-11.5 -0.95,-19.62 -1.89,-31.12 -1.9,-15.57 -19.4,-38.58 -33.59,-62.27 -4.74,-7.44 -8.99,-12.18 -14.19,-18.95 -9.46,-12.85 -16.09,-21.65 -26.01,-36.54 z m -199.14,27.75 c -50.14,-37.9 -74.26,-70.38 -120.62,-98.81 -16.55,-10.15 -19.86,-25.04 -37.37,-43.31 -4.73,-4.74 -4.73,-4.07 -7.57,-6.77 l -44.93,-50.08 c -47.77,-70.38 -136.7,-163.1 -136.7,-249.73 0,-17.6 4.73,-21.65 14.66,-29.1 19.86,5.41 22.71,20.3 31.69,39.93 19.87,43.31 87.03,135.36 117.78,177.99 0.47,0.68 1.42,2.03 1.89,2.71 0.47,0.68 1.42,2.03 1.89,2.71 l 13.72,19.62 c 47.77,64.98 15.14,23.69 56.76,62.94 l 67.64,70.39 c 0.47,0.68 1.42,1.35 2.36,2.71 l 72.84,69.7 c 5.67,5.42 9.93,9.48 17.5,16.25 l 88.46,77.82 c 0.95,0.68 1.89,2.04 2.36,2.71 l 4.25,6.09 c 0,1.35 0.95,2.71 0.95,3.39 3.79,12.86 -2.36,26.39 -17.97,26.39 -21.29,0 -4.26,4.74 -24.12,-13.53 -6.63,-6.09 -11.35,-9.48 -17.98,-15.57 l -87.5,-74.45 z M -0.03,709.95 v 4.74 c 35.95,24.36 3.31,29.78 46.36,39.93 40.67,9.47 24.6,15.57 52.5,33.16 21.76,14.21 9.46,9.47 26.49,25.72 43.99,42.63 10.88,7.44 33.11,52.79 23.18,48.05 17.98,46.02 17.98,115.73 0,58.88 2.84,50.08 -20.34,89.34 -11.35,19.62 -6.15,23.68 -13.24,43.31 -7.1,19.62 -11.83,14.89 -24.12,28.42 -43.99,48.06 -14.19,14.22 -46.36,39.26 l -45.88,35.87 c -6.62,8.79 0.95,6.76 -14.19,18.95 -25.07,20.3 4.73,0.67 -12.3,6.76 v 9.47 c 53.45,28.43 135.28,-16.92 189.21,25.04 10.87,8.12 9.93,8.8 24.12,14.22 29.79,12.18 15.61,5.42 51.56,58.2 15.13,21.65 12.3,34.51 7.56,60.91 -7.56,46.02 -16.55,35.19 -51.08,81.89 -5.67,7.44 -3.78,2.03 -6.62,12.18 66.22,15.57 135.28,-18.95 51.56,66.32 l -4.73,4.74 c -40.21,31.81 -8.99,-1.35 -38.32,52.12 -10.4,18.26 -12.3,50.76 -46.82,53.47 0,27.75 24.12,51.43 -18.45,90.68 -18.92,17.6 -16.55,28.43 -29.32,47.37 17.5,11.51 12.77,18.27 46.82,13.54 65.28,-7.44 104.07,-13.54 139.07,38.58 19.4,-4.74 0.47,0 13.72,-4.74 l 17.5,-6.77 c 12.3,-6.76 17.98,-12.85 21.29,-26.39 25.07,0 21.76,2.71 31.7,11.5 14.66,12.86 13.24,10.15 30.74,16.93 1.42,0.67 2.37,1.35 3.32,2.03 1.42,0 2.36,0.68 3.31,1.35 0.95,0 2.36,0.68 2.84,1.36 1.42,0 4.26,1.35 5.68,1.35 l 5.2,-0.67 c 1.42,-0.68 29.8,-13.54 46.83,-14.22 28.38,-0.68 27.43,14.89 37.37,27.75 24.12,31.81 56.76,-5.42 93.66,2.03 17.5,3.39 43.98,37.23 68.58,60.24 39.74,-3.39 21.76,-18.95 76.16,-18.95 6.62,24.37 18.44,18.27 34.52,31.81 18.45,16.24 10.41,24.36 42.58,29.1 32.64,4.74 35,-7.44 53.45,13.54 20.34,23.01 15.14,16.25 55.35,16.25 4.73,6.76 8.99,15.56 16.55,21.65 l 49.66,35.87 c 2.85,1.35 10.41,3.39 14.2,4.74 19.39,7.44 24.12,24.37 48.25,52.12 l 26.96,25.72 c 45.88,38.57 34.53,50.76 55.34,73.09 47.77,52.11 44.47,52.11 66.7,104.9 2.84,6.76 9.46,20.3 14.66,28.43 6.15,8.79 11.83,16.92 17.5,25.04 h 4.74 c 20.82,-31.13 39.26,-27.75 43.04,-104.9 3.79,-76.48 38.32,-34.52 15.14,-119.79 -6.63,-23.69 -10.41,-35.87 -10.41,-65.65 0,-29.11 -3.31,-46.02 -9.46,-67 -7.1,-25.04 -21.76,-31.8 -26.49,-50.08 -9.93,-34.52 9.93,-29.78 -15.13,-60.91 -15.62,-18.27 -5.21,0.67 -12.77,-25.05 -5.21,-17.6 -5.68,-19.62 -17.51,-30.45 l -14.66,-14.21 c -6.15,-10.83 -2.84,-15.57 -8.99,-29.11 -12.77,-29.1 -9.46,1.36 -33.59,-61.58 -4.25,-10.83 -0.47,-3.39 -7.56,-11.51 -36.89,-42.63 1.89,-12.86 -43.99,-70.38 -16.55,-20.3 -28.85,-50.76 -38.78,-75.8 -8.04,-21.66 -2.84,-6.77 -15.61,-22.34 -14.67,-18.27 -8.04,-42.63 -3.32,-63.62 h 14.2 c 9.93,41.96 22.22,15.57 40.67,45.34 29.32,48.06 29.79,15.57 35,55.5 6.14,46.02 3.31,34.51 32.63,58.2 6.63,5.42 16.56,15.57 21.29,21.65 8.52,11.51 7.57,18.27 19.4,27.75 23.18,18.27 34.06,3.39 49.66,41.29 29.32,73.1 16.08,25.04 37.84,52.79 15.13,18.95 3.78,50.77 25.07,65.65 9.93,6.76 15.61,4.74 28.38,14.89 10.88,8.12 12.3,14.21 25.07,22.33 56.76,-4.74 26.97,-15.57 43.05,-52.11 11.83,-26.4 38.78,-14.22 42.58,-57.53 28.85,7.44 6.62,18.27 43.04,18.95 20.82,-39.94 1.89,-29.11 39.26,-79.18 l 37.84,-43.99 c 47.77,-35.87 -13.24,26.4 31.22,-30.45 16.55,-20.98 -19.4,14.89 13.24,-10.83 21.29,-16.92 5.21,-1.35 12.3,-16.24 l 4.25,-10.15 v -28.43 l -27.43,-53.47 c -9.93,-23.01 -1.42,-43.31 -11.35,-64.98 0,0 -4.73,-9.47 -6.62,-12.18 -29.33,-52.11 -9.46,-73.77 -21.76,-111.67 -9.46,-28.43 -19.87,-23.69 -44.94,-35.87 -29.79,-14.89 -14.19,-24.36 -23.18,-53.47 -7.56,-24.36 -26.01,-11.5 -26.96,-50.08 -0.95,-30.45 14.19,-29.78 33.59,-42.64 0,-51.43 17.02,-65.65 -15.13,-99.48 -28.39,-29.78 -18.45,-43.31 -24.12,-75.81 -4.74,-27.07 -8.04,-15.57 -18.45,-24.36 -26.01,-23.01 0.47,-16.93 -42.57,-37.9 -39.27,-19.63 -11.83,-26.4 -43.99,-60.91 -26.49,-29.11 1.89,-39.94 -35.95,-69.03 -13.24,-10.15 -19.87,-10.15 -29.79,-23.01 -36.42,-46.7 -32.17,-16.93 -65.75,-38.58 -17.02,-11.51 -16.55,-20.98 -25.54,-41.96 0,0 -3.78,-8.11 -4.25,-9.47 -2.85,-6.08 -4.74,-9.47 -8.04,-16.24 l -39.73,-64.98 C 1160.83,584.07 1103.59,500.15 1073.31,471.05 L 914.38,316.07 C 903.97,305.92 898.3,299.15 887.89,289.68 L 859.51,265.99 C 816.93,225.38 740.78,145.52 724.7,85.97 c -66.7,5.41 -20.82,221.3 74.73,297.1 26.49,20.98 17.97,92.04 11.35,121.82 -24.6,6.09 -22.23,9.47 -39.73,-7.44 L 655.63,369.54 C 587.51,289.01 538.32,203.73 490.07,110.34 c -3.78,-7.44 -5.2,-10.15 -9.45,-18.95 L 438.52,0.03 h -18.91 c -7.57,32.49 -14.67,31.81 -14.2,75.81 0,62.26 -11.35,109.64 -1.89,168.51 7.57,43.31 16.09,34.52 16.09,70.39 -26.02,-0.68 -22.71,-7.44 -40.21,-21.66 -6.14,-5.42 -3.78,-3.38 -10.41,-8.79 L 235.6,131.34 c -9.93,-13.54 -16.55,-20.98 -27.43,-34.52 -0.47,-1.35 -12.3,-16.24 -12.3,-16.24 -11.35,-11.51 2.36,-7.44 -19.39,-8.8 -3.32,38.58 -10.41,96.1 13.24,134.68 24.6,39.94 10.4,33.84 24.12,65.65 8.03,18.26 16.55,18.26 22.7,39.93 L 248.37,414.9 237.5,523.19 c -3.32,17.6 -16.09,26.4 -21.76,40.61 -6.63,16.25 -3.79,35.19 -11.83,49.41 -11.35,20.3 -3.31,3.38 -13.72,14.89 -21.29,23.01 -1.89,22.33 -24.12,38.58 l -57.24,33.16 C 69.57,707.28 84.71,690.36 0.04,709.99 Z"
   id="path1" />
 </g></g></g></svg>
