<svg width="38" height="38" viewBox="0 0 38 38" fill="none" xmlns="http://www.w3.org/2000/svg">
<g clip-path="url(#clip0_117_99)">
<path d="M8.09254 3.2573C5.42696 3.2573 3.2573 5.34243 3.2573 7.90657V30.0934C3.2573 32.6576 5.42696 34.7427 8.09254 34.7427H29.637C32.3025 34.7427 34.4722 32.6576 34.4722 30.0934V7.90657C34.4722 5.34243 32.3025 3.2573 29.637 3.2573H8.09254ZM29.637 38H8.09254C3.62924 38 0 34.4553 0 30.0934V7.90657C0 3.54471 3.62924 0 8.09254 0H29.637C34.1003 0 37.7295 3.54471 37.7295 7.90657V30.0934C37.7295 34.4553 34.1003 38 29.637 38ZM18.8619 12.3924C15.2214 12.3924 12.2572 15.3567 12.2572 18.9972C12.2572 22.6377 15.2214 25.602 18.8619 25.602C22.5024 25.602 25.4667 22.6377 25.4667 18.9972C25.4667 15.3567 22.5024 12.3924 18.8619 12.3924ZM18.8619 28.8593C13.4237 28.8593 8.99985 24.4354 8.99985 18.9972C8.99985 13.5589 13.4237 9.1351 18.8619 9.1351C24.3002 9.1351 28.724 13.5589 28.724 18.9972C28.724 24.4354 24.3002 28.8593 18.8619 28.8593ZM31.7559 8.63918C31.7559 9.9128 30.7246 10.9441 29.451 10.9441C28.1774 10.9441 27.1461 9.9128 27.1461 8.63918C27.1461 7.36556 28.1774 6.33427 29.451 6.33427C30.7246 6.33427 31.7559 7.36556 31.7559 8.63918Z" fill="#55E0B0"/>
</g>
<defs>
<clipPath id="clip0_117_99">
<rect width="37.7295" height="38" fill="white"/>
</clipPath>
</defs>
</svg>
