<?xml version="1.0" encoding="UTF-8" standalone="no"?>
<!-- Created with Inkscape (http://www.inkscape.org/) -->

<svg
   width="52.965752mm"
   height="34.131237mm"
   viewBox="0 0 52.965752 34.131237"
   version="1.1"
   id="svg1"
   xml:space="preserve"
   inkscape:version="1.4 (86a8ad7, 2024-10-11)"
   sodipodi:docname="logo-dragonnegro.svg"
   xmlns:inkscape="http://www.inkscape.org/namespaces/inkscape"
   xmlns:sodipodi="http://sodipodi.sourceforge.net/DTD/sodipodi-0.dtd"
   xmlns="http://www.w3.org/2000/svg"
   xmlns:svg="http://www.w3.org/2000/svg"><sodipodi:namedview
     id="namedview1"
     pagecolor="#ffffff"
     bordercolor="#000000"
     borderopacity="0.25"
     inkscape:showpageshadow="2"
     inkscape:pageopacity="0.0"
     inkscape:pagecheckerboard="0"
     inkscape:deskcolor="#d1d1d1"
     inkscape:document-units="mm"
     inkscape:zoom="0.72604517"
     inkscape:cx="131.53452"
     inkscape:cy="172.85426"
     inkscape:window-width="1920"
     inkscape:window-height="1017"
     inkscape:window-x="-8"
     inkscape:window-y="-8"
     inkscape:window-maximized="1"
     inkscape:current-layer="layer1" /><defs
     id="defs1"><style
       type="text/css"
       id="style1">
   <![CDATA[
    .fil0 {fill:none}
    <!-- .fil1 {fill:#2A2D37;fill-rule:nonzero} -->
    .fil1 {fill:#000000;fill-rule:nonzero}
   ]]>
  </style></defs><g
     inkscape:label="Capa 1"
     inkscape:groupmode="layer"
     id="layer1"
     transform="translate(-70.418808,-102.88906)"><g
       style="clip-rule:evenodd;fill-rule:evenodd;image-rendering:optimizeQuality;shape-rendering:geometricPrecision;text-rendering:geometricPrecision"
       id="g1"
       transform="matrix(0.01000001,0,0,0.01000001,70.418708,102.88906)"><g
         id="Capa_x0020_1"
         inkscape:label="Capa 1"
         inkscape:groupmode="layer">
  <metadata
   id="CorelCorpID_0Corel-Layer" />
  <rect
   class="fil0"
   x="0.0099999998"
   width="5296.5698"
   height="3413.1201"
   id="rect1"
   y="0" />
  <path
   class="fil1"
   d="m 5025.94,3191.31 v -88.97 h 17.7 l 21.03,63.01 c 1.95,5.85 3.39,10.23 4.26,13.14 1.01,-3.22 2.6,-7.98 4.74,-14.28 l 21.31,-61.87 h 15.83 v 88.97 h -11.33 v -74.45 l -25.84,74.45 h -10.65 l -25.7,-75.72 v 75.72 z m 104.02,0 v -88.97 h 39.46 c 7.92,0 13.96,0.82 18.07,2.44 4.13,1.57 7.43,4.39 9.9,8.41 2.47,4.07 3.69,8.54 3.69,13.42 0,6.33 -2.05,11.63 -6.15,15.97 -4.06,4.31 -10.36,7.07 -18.9,8.23 3.09,1.5 5.49,2.98 7.12,4.46 3.42,3.13 6.65,7.1 9.75,11.82 l 15.45,24.22 h -14.8 l -11.77,-18.54 c -3.41,-5.3 -6.24,-9.41 -8.51,-12.2 -2.19,-2.86 -4.18,-4.85 -5.94,-5.97 -1.77,-1.15 -3.54,-1.92 -5.39,-2.39 -1.32,-0.25 -3.51,-0.39 -6.52,-0.39 h -13.69 v 39.49 z m 11.77,-49.69 h 25.34 c 5.33,0 9.59,-0.56 12.58,-1.68 3.08,-1.13 5.35,-2.91 6.94,-5.33 1.59,-2.47 2.37,-5.13 2.37,-8 0,-4.2 -1.52,-7.65 -4.58,-10.37 -3.05,-2.69 -7.9,-4.06 -14.49,-4.06 h -28.16 z m -22.01,-131.79 c 37.19,0 70.88,15.09 95.26,39.46 24.36,24.37 39.45,58.1 39.45,95.28 0,37.19 -15.09,70.89 -39.45,95.26 -24.38,24.36 -58.07,39.45 -95.26,39.45 -37.22,0 -70.88,-15.09 -95.25,-39.45 -24.37,-24.37 -39.46,-58.07 -39.46,-95.26 0,-37.18 15.09,-70.91 39.46,-95.28 l 0.45,-0.44 c 24.35,-24.1 57.86,-39.02 94.8,-39.02 z m 84.89,49.82 c -21.73,-21.69 -51.76,-35.17 -84.89,-35.17 -32.99,0 -62.86,13.3 -84.51,34.78 l -0.38,0.39 c -21.69,21.73 -35.17,51.76 -35.17,84.92 0,33.13 13.48,63.17 35.17,84.89 21.71,21.7 51.76,35.17 84.89,35.17 33.13,0 63.16,-13.47 84.89,-35.17 21.69,-21.72 35.15,-51.76 35.15,-84.89 0,-33.16 -13.46,-63.19 -35.15,-84.92 z M 221.73,2884.98 h 126.21 c 61.79,0 102.61,11.8 122.43,35.55 29.78,35.08 29.18,89.97 -1.7,164.68 -32.07,77.51 -74.63,133.62 -127.53,168.15 -24.08,15.65 -48.17,26.71 -72.45,33.04 -24.35,6.46 -54.54,9.63 -90.39,9.63 H 42.15 l 57.77,-33.68 140.82,-340.52 z m 85.89,26.9 -148.6,359.45 h 17.71 l 139.91,-338.35 c 11.79,-1.64 22.21,-2.51 31.4,-2.51 17.52,0 30.67,1.74 39.38,5.25 8.58,3.59 16.2,10.05 22.55,19.34 -18.27,-10.6 -40.23,-15.95 -66.12,-15.95 -5.58,0 -13.02,0.42 -22.35,1.3 l -136.83,330.92 c 23.98,0 42.93,-1.97 56.95,-5.93 14.08,-3.92 28.94,-11.57 44.77,-22.95 43.96,-31.39 81.26,-84.11 111.93,-158.23 29.93,-72.4 33.66,-121.83 11,-148.28 -13.68,-16.08 -42.55,-24.06 -86.61,-24.06 z m -256.41,410.39 -1.23,-8.62 H 167.2 c 57.61,0 104.78,-7.99 141.27,-24.07 78.41,-34.14 137.92,-100.28 178.45,-198.24 27.09,-65.65 32.79,-114.29 17.2,-146.14 l -7.07,-14.08 c -0.29,-0.43 -0.8,-1.97 -1.96,-4.49 33.51,28.43 33.66,82.78 0.49,163.06 -34.85,84.32 -83.01,146.53 -144.34,186.44 -47.15,30.73 -109.62,46.14 -187.63,46.14 z m 556.45,-398.9 c 62.69,-29.2 123.19,-43.87 181.49,-43.87 45.27,0 78.61,9.84 99.76,29.54 21.35,19.56 25.64,44.6 13.1,74.9 -10.26,24.83 -28.91,46.68 -56.07,65.82 -27.16,19.14 -59.1,32.94 -95.99,41.44 -2.07,40.69 1.63,80.18 11.07,118.66 9.39,38.39 22.56,67.92 39.6,88.36 l -5.48,1.64 c -36.37,10.93 -73.98,26.25 -112.71,46.16 l -6.13,3.16 2.72,-10.28 c 20.54,-82.68 30.32,-152.68 29.5,-210.19 v -3.16 c -17.51,6.88 -39.51,12.25 -66,16.28 l -2.66,0.34 -49.57,119.86 31.52,60.24 H 456.15 l -1.56,-8.62 h 152.53 l -26.07,-49.33 53.4,-129.15 7.18,-0.99 c 25.31,-2.49 47.75,-7.31 67.09,-14.43 -0.25,-2.5 -0.34,-4.14 -0.31,-4.81 l 0.67,-9.29 c 0.06,-0.66 0,-1.86 -0.04,-3.83 -14.81,3.83 -41.46,7.99 -80.04,12.45 l -3.78,0.67 -59.11,142.93 20.75,38.16 H 445.25 l 57.41,-38.16 44.53,-107.6 -2.64,0.3 c -13.63,2.76 -26.03,5.8 -37.57,9.31 l -2.98,0.87 -0.24,-6.33 c 10.92,-3.63 19.31,-6.1 25.19,-7.44 l 18.8,-4.16 2.76,-0.65 6.89,-16.62 c -12.56,0 -29.45,2.74 -50.56,8.31 l -4.07,1.31 c 1.68,-2.95 6.64,-9.95 15.1,-20.9 0.75,-0.73 4.15,-5.56 10.4,-14.31 0.48,-0.65 1.22,-1.62 2.09,-2.96 9.36,0.66 16.79,0.98 22.11,0.98 5.72,0 11.23,-0.32 16.38,-0.98 l 65.18,-157.57 c -7.36,-6.02 -15.46,-11.03 -24.15,-15.09 z m 100.19,-8.32 -71.38,172.66 c 6.24,0 12.25,-0.55 18.25,-1.53 l 65.2,-157.7 c 12.99,-3.17 27.79,-4.79 44.31,-4.79 41.55,0 64.21,13.64 67.88,41.01 -10.58,-12.82 -20.78,-21.67 -30.73,-26.46 -9.91,-4.83 -23.26,-7.23 -39.99,-7.23 -12.99,0 -24.91,1.3 -35.84,3.94 l -62.56,151.23 3.8,-0.64 c 45.32,-7.79 81.56,-19.81 108.77,-36.43 27.28,-16.52 46.38,-38.05 57.3,-64.52 9.79,-23.73 8.72,-43.31 -3.21,-58.83 -12.04,-15.43 -31.99,-23.2 -59.97,-23.2 -22.41,0 -42.95,4.16 -61.83,12.49 z m 75.27,192.24 c -4.74,43.97 1.17,87.04 17.98,129.16 10.5,26.22 27.74,49.85 51.81,70.75 -54.28,13 -108.45,32.89 -162.47,59.6 l -3.63,1.95 -4.36,-5.13 c 51.86,-26.69 103.51,-46.36 154.88,-58.94 -44.6,-41.01 -65.83,-106.63 -63.79,-196.74 l 0.29,-5.47 c 75.65,-24.83 123.97,-62.53 144.97,-113.38 8.62,-20.9 9.69,-43.75 2.97,-68.56 13.42,19.65 13.96,44.59 1.37,75.01 -20.27,49.09 -66.99,86.39 -140.02,111.75 z m 538.86,-222.31 -48.99,37.84 -5.17,139.62 15.75,-7.1 4.7,-126.19 50.17,-39.04 6.87,3.51 -47.92,37.5 -4.51,119.41 c 3.41,-1.84 5.3,-3.06 5.93,-3.51 l 14.31,-8.96 c 8.56,-5.12 14.12,-8.75 16.68,-10.92 -4.53,24.37 -5,46.14 -1.37,65.39 -6.05,-0.46 -10.41,-0.67 -13.17,-0.67 -20.31,0 -36.54,3.17 -48.59,9.63 l -7,157.35 32.64,37.19 h -161.74 l 59.54,-37.19 3.17,-93.59 c -33.32,23.73 -60.67,46.26 -82.11,67.69 l -6.63,-1.96 c 21.32,-20.89 49.68,-44.29 85.47,-70.23 l 3.82,-3.16 -0.21,-14.1 c -34.21,21.22 -65.34,45.69 -93.55,73.7 l -1.95,-9.28 c -3.83,-17.73 -9.67,-37.96 -17.58,-60.61 l -1.63,-3.81 c -31.59,36.52 -52.09,66.27 -61.54,89.12 -5.55,13.45 -7.97,24.81 -7.2,34.11 0.72,9.31 5.37,24.83 13.86,46.59 0.71,1.96 1.9,4.93 3.39,8.96 H 854.41 l -2.87,-8.62 h 163.16 l -2.67,-6.79 c -7.04,-17.07 -10.87,-30.3 -11.3,-39.81 -0.46,-9.49 1.97,-20.66 7.3,-33.59 8.99,-21.73 31.32,-54.24 66.81,-97.31 l -7.89,-14.74 c -5.63,6.78 -13.29,16.83 -23.04,30.05 l -24.13,32.69 c -13.02,17.5 -21.88,32.06 -26.64,43.66 -4.93,11.92 -7.01,21.86 -6.24,29.75 0.77,7.96 4.87,18.7 12.22,32.34 0.79,1.33 1.8,3.39 3.28,6.13 H 842.18 c 37.07,-15.86 70.06,-37.08 98.99,-63.76 28.87,-26.67 63.52,-67.89 104.08,-123.66 l 3.15,-4.49 c -7.28,-9.64 -21.26,-15.52 -41.69,-17.61 18.99,-17.61 35.6,-35.87 49.92,-54.91 1.76,2.86 2.95,4.5 3.34,5.15 l 8.9,13.46 c 2.94,4.71 6.75,9.51 11.62,14.42 l 11.51,-14.1 -2.54,-3.16 c -6.71,-9.41 -12.55,-16.97 -17.46,-22.77 l -1.9,-2.27 8.03,-7.02 c 8.18,7.44 15.52,16.07 21.99,25.91 l 93.01,-119.72 -18.9,-36.52 z m -121.68,102.79 -73.65,92.96 c 1.08,2.07 1.52,3.39 1.6,3.79 l 7.1,14.79 c 3.85,7.66 7.89,19.56 12.07,35.86 l 1.21,4.81 c 13.97,-11.59 29.59,-22.95 46.86,-34.33 z m 1.01,-37.18 -106.6,134.62 c 9.31,16.61 16.51,33.14 21.59,49.3 l 6.15,20.56 c 0.17,0.23 0.71,1.52 1.59,4.16 2.68,-1.99 4.24,-3.18 4.66,-3.61 l 6.72,-5.35 c 1,-0.88 2.68,-2.29 5.18,-4.16 -5.39,-23.08 -14.19,-43.96 -26.29,-62.56 l 85.76,-108.25 z m 150.33,91.96 c -3.27,19.26 -2.35,45.6 2.46,79.18 -4.29,-0.67 -6.92,-1.01 -7.57,-1.01 l -24.99,-2.17 c -11.29,-1.1 -19.69,-1.64 -24.93,-1.64 -0.89,0 -3.13,0.12 -6.59,0.34 l -5.23,141.93 45.45,63.09 h -185.6 l -2.42,-8.62 h 170.03 l -36.54,-50.98 5.29,-150.89 c 8.13,-1.87 16.84,-2.85 26.22,-2.85 11.5,0 24.02,0.98 37.21,2.85 l -0.87,-7.13 c -3.28,-25.14 -3.06,-47.89 0.65,-68.22 z m 527.95,-146.29 -108.64,117.75 c 10.05,-33.48 10.15,-59.15 0.21,-76.87 -9.86,-17.71 -28.82,-26.58 -57.05,-26.58 -40.13,0 -77.85,15.65 -113.05,46.79 -35.17,31.19 -64.42,74.92 -87.61,131.01 -51.14,123.69 -26.14,185.6 75.01,185.6 h 51.63 l 68.79,-166.34 h -80.67 c -17.54,0 -29.68,-1 -36.48,-2.83 -6.83,-1.97 -12.44,-6.15 -16.81,-12.6 l 3.33,-7.97 c 5.26,5.78 11.46,9.61 18.4,11.36 6.85,1.88 18.95,2.76 36.35,2.76 h 79.71 l 7.13,-17.31 h -88.98 -14.46 c -31.82,0 -43,-11.57 -33.44,-34.64 3.69,-8.98 9.51,-16.64 17.53,-23.07 8.02,-6.45 15.77,-9.63 23.23,-9.63 5.59,0 9.6,2.07 12.11,6.12 2.49,4.04 2.55,8.85 0.28,14.42 -3.91,9.41 -9.54,14.88 -17.1,16.41 l -8.38,1.56 c -2.77,0.63 -4.52,1.74 -5.17,3.26 -1.11,2.72 1.78,4.16 8.89,4.16 h 10.93 211.39 l -62.06,43.2 -65.34,158.01 26.47,35.2 h -163.73 -32.37 c -27.1,0 -48.19,-3.28 -63.13,-9.96 -14.99,-6.55 -28.05,-18.37 -39.24,-35.18 -26.67,-39.38 -26.38,-91.98 0.94,-158.03 28.17,-68.14 70.48,-121.29 126.9,-159.55 49.27,-33.56 98.31,-50.29 146.98,-50.29 21.76,0 45.22,3.82 70.11,11.57 25.61,7.87 42.99,11.81 52.18,11.81 13.44,0 28.55,-3.37 45.21,-10.14 z m 10.87,19.99 -99.33,107.7 -6.21,-3.49 99.82,-108.05 z m -122.6,48.75 -4.08,-4.14 c -17.13,-17.27 -35.91,-25.91 -55.92,-25.91 -24.38,0 -48.93,8.64 -73.8,25.91 -18.07,12.8 -34.33,29.63 -48.47,50.31 -14.29,20.77 -28.42,48.11 -42.44,81.99 -17.84,43.21 -27.26,76.24 -28.15,98.98 -0.88,22.85 6.32,43.54 21.43,61.91 l -1.42,3.51 c -18.6,-14.78 -27.84,-35.55 -27.71,-62.35 0.28,-26.8 9.79,-63.11 28.79,-109.03 20.93,-50.61 46.72,-89.99 77.39,-118.09 30.63,-28.12 63.11,-42.11 97.45,-42.11 29.86,0 49.14,12.36 57.68,37.18 z m 75.08,112.75 -46.69,33.03 -62.13,150.24 27.81,61.25 -126.77,-0.97 -115.79,1.3 c -7.33,0 -12.84,-0.21 -16.47,-0.65 -12.8,-1.52 -23.98,-7.33 -33.37,-17.61 h 6.76 c 11.86,6.45 30.33,9.64 55.61,9.64 l 16.11,-0.33 h 199.58 l -23.93,-49 64.96,-157.03 52.18,-37.19 z m 344.98,-121.37 -4.14,-3.16 c -15.85,-11.39 -32.21,-17.07 -49.37,-17.07 -56.13,0 -107.05,55.23 -152.68,165.67 -33.41,80.71 -38.17,134.28 -14.26,160.53 l -4.14,3.17 c -15.08,-15.1 -22.18,-35 -21,-59.71 1.13,-24.7 10.44,-58.06 27.85,-100.16 49.04,-118.55 104.68,-177.82 167.02,-177.82 28.43,0 45.38,9.5 50.72,28.55 z m -37.3,-75.56 c 51.8,0 85.24,19.68 100.08,58.94 14.79,39.38 8.63,91.84 -18.62,157.7 -25.69,62.1 -61.47,111.63 -107.4,148.6 -45.98,36.97 -94.77,55.44 -146.48,55.44 -40.78,0 -71.71,-12.99 -92.67,-39.04 -30.88,-38.48 -30.71,-95.46 0.43,-170.8 26.69,-64.52 63.87,-115.82 111.6,-153.77 47.79,-38.06 98.81,-57.07 153.06,-57.07 z m -11.41,27.55 c -72.16,0 -134.5,63.42 -186.93,190.27 -48.51,117.33 -37.2,175.95 33.86,175.95 33.16,0 64.84,-15.53 94.95,-46.58 30.15,-31.16 57.56,-76.55 82.3,-136.35 27.99,-67.71 39.21,-114.94 33.62,-141.62 -6.14,-27.77 -25.31,-41.67 -57.8,-41.67 z m 106.84,-11.26 c 24.47,14.77 38.16,40.03 41.2,75.66 2.98,35.66 -5.24,76.89 -24.6,123.68 -28.39,68.67 -68.84,124.22 -121.24,166.56 -52.38,42.3 -107.03,63.41 -163.91,63.41 -36.32,0 -65.13,-12.25 -86.59,-36.84 l 0.69,-1.64 c 18.43,19.44 47.65,29.22 87.59,29.22 53.56,0 106.01,-20.25 157.02,-60.61 51.15,-40.34 89.59,-91.84 115.59,-154.73 19.31,-46.68 28.33,-87.59 27.21,-122.68 -1.23,-35.01 -12.73,-61.15 -34.51,-78.42 z m 498.07,-12.13 c -29.48,12.57 -50.04,24.16 -61.45,34.56 -17.34,16.28 -32.78,40.67 -46.3,73.36 l -8.58,20.79 -116.76,282.34 h -54.13 l -29.87,-293.51 -71.94,173.98 -6.28,14.45 -15.25,46.15 c -4.59,21.31 -1.42,37.17 9.6,47.35 l 1.54,2.27 c -25.31,-9.82 -27.08,-41.31 -5.08,-94.45 l 12.82,-30.2 72.48,-175.27 -3.51,-33.58 -76.28,184.47 c -24.22,58.61 -36.23,96.89 -35.98,115.05 0.15,18.14 12.67,31.47 37.69,39.78 l 15.56,29.75 h -173.66 l -1.55,-8.62 h 160.56 l -9.37,-17.62 h -149.42 c 29.94,-9.41 52.55,-21.97 67.64,-37.84 15.02,-15.74 30.47,-42.85 46.41,-81.34 l 105.98,-256.32 -27.94,-35.55 h 162.17 l -58.05,30.37 30.01,302.5 15.88,-38.51 -25.96,-258.81 57.45,-30.42 3.57,6.15 -50.81,26.88 22.92,238.93 61.87,-149.6 7.04,-17.05 c 15.3,-37.09 22.52,-61.91 21.72,-74.49 -0.97,-12.44 -10.99,-24.45 -30.2,-35.95 z m 1.32,23.7 -9.68,9.66 c -18.05,3.79 -32.17,10.93 -42.22,21.19 -10.19,10.4 -20.35,27.89 -30.48,52.38 l -136.62,330.36 h -68.88 l -0.6,-8.62 h 64.4 l 131.68,-318.43 c 12.48,-30.22 25.11,-51.21 37.76,-63.01 12.62,-11.79 30.89,-19.69 54.64,-23.53 z m 556.8,-23.7 c -29.47,12.57 -50.01,24.16 -61.39,34.56 -17.35,16.28 -32.8,40.67 -46.34,73.36 l -8.57,20.79 -116.78,282.34 h -54.13 l -29.82,-293.51 -72,173.98 -6.25,14.45 -15.26,46.15 c -4.55,21.31 -1.39,37.17 9.64,47.35 l 1.54,2.27 c -25.35,-9.82 -27.11,-41.31 -5.12,-94.45 l 12.82,-30.2 72.49,-175.27 -3.51,-33.58 -76.26,184.47 c -24.27,58.61 -36.27,96.89 -36.02,115.05 0.17,18.14 12.68,31.47 37.71,39.78 l 15.59,29.75 h -173.69 l -1.57,-8.62 h 160.54 l -9.35,-17.62 h -149.38 c 29.93,-9.41 52.53,-21.97 67.6,-37.84 15.05,-15.74 30.52,-42.85 46.42,-81.34 l 105.98,-256.32 -27.95,-35.55 h 162.19 l -58.08,30.37 30,302.5 15.95,-38.51 -25.97,-258.81 57.44,-30.42 3.56,6.15 -50.81,26.88 22.95,238.93 61.82,-149.6 7.03,-17.05 c 15.35,-37.09 22.54,-61.91 21.75,-74.49 -0.99,-12.44 -11,-24.45 -30.2,-35.95 z m 1.35,23.7 -9.68,9.66 c -18.07,3.79 -32.15,10.93 -42.22,21.19 -10.18,10.4 -20.38,27.89 -30.48,52.38 l -136.62,330.36 h -68.89 l -0.57,-8.62 h 64.38 l 131.67,-318.43 c 12.48,-30.22 25.09,-51.21 37.74,-63.01 12.67,-11.79 30.9,-19.69 54.67,-23.53 z m 374.52,-23.7 -7.66,6.1 c -32.79,26.71 -62.75,57.31 -89.93,91.88 -0.04,-4.91 -0.2,-8.55 -0.32,-10.84 -1.1,-25.69 -6.84,-42.2 -17.22,-49.63 -10.32,-7.55 -32.95,-11.27 -67.82,-11.27 -16,0 -35.48,0.55 -58.35,1.65 l -60.92,147.38 h 20.56 l 53.9,-130.45 c 16.83,-1.52 32.66,-2.29 47.45,-2.29 27.09,0 45.85,2.86 56.23,8.64 10.52,5.79 17.25,17.07 20.43,33.68 -2.1,-2.07 -3.61,-3.73 -4.44,-4.83 -11.67,-13.65 -20.76,-21.74 -27.36,-24.35 -6.7,-2.54 -21.28,-3.83 -43.87,-3.83 -6.91,0 -19.22,0.42 -37.09,1.29 l -6.89,0.32 -50.41,121.82 h 58.95 l 64.82,-56.74 -57.07,138.01 -19.28,-53.37 h -87.46 l -74.33,179.67 h 20.58 l 68.12,-164.69 h 69.52 l 4.88,8.3 h -69.87 l -64.66,156.39 c 43.49,0 75.83,-3.07 96.77,-9.28 20.99,-6.25 40.34,-18.4 58.3,-36.53 l 29.03,-29.22 c 1.18,-1.19 3.47,-3.61 6.86,-6.98 -4.26,23.48 -5.16,42.31 -2.69,56.42 2.38,14.1 9.13,30.52 20.42,49.32 h -359.15 l 64.05,-37.19 59.1,-142.93 c -18.85,2.21 -37.3,7.67 -55.54,16.63 l -1.72,-6.65 c 16.88,-9.43 37.15,-15.54 60.7,-18.28 l 6.19,-14.98 c -3.43,-0.44 -5.97,-0.63 -7.39,-0.63 -21.86,0 -44.96,7.96 -69.48,23.91 23.9,-34.1 53.4,-51.18 88.41,-51.18 l 56.61,-136.88 -32.82,-38.39 z m 6.16,22.41 -3.47,2.84 c -40.51,34.97 -70.05,64.41 -88.75,88.13 l -2.51,-6.77 c 27.93,-33.04 58.9,-63.42 93.03,-90.97 z m -138.37,106.62 -58.54,141.61 -6.28,-4.16 58.55,-141.6 z m 17.13,279.4 -28.56,28.86 h -349.8 l -1.61,-8.62 h 350.84 l 19.17,-20.24 c -19.02,-28.33 -28.07,-58.73 -27.32,-90.98 l 8.59,3.82 c 0.5,27.35 9.01,54.68 25.6,82.14 z m 533.27,-397.15 -108.61,117.75 c 10.03,-33.48 10.13,-59.15 0.2,-76.87 -9.86,-17.71 -28.81,-26.58 -57.06,-26.58 -40.13,0 -77.86,15.65 -113.03,46.79 -35.18,31.19 -64.45,74.92 -87.63,131.01 -51.15,123.69 -26.12,185.6 75.01,185.6 h 51.64 l 68.77,-166.34 h -80.67 c -17.53,0 -29.68,-1 -36.47,-2.83 -6.81,-1.97 -12.45,-6.15 -16.79,-12.6 l 3.31,-7.97 c 5.26,5.78 11.46,9.61 18.4,11.36 6.84,1.88 18.95,2.76 36.35,2.76 h 79.71 l 7.15,-17.31 h -88.98 -14.44 c -31.84,0 -43.04,-11.57 -33.49,-34.64 3.73,-8.98 9.54,-16.64 17.54,-23.07 8.01,-6.45 15.77,-9.63 23.25,-9.63 5.57,0 9.58,2.07 12.08,6.12 2.51,4.04 2.56,8.85 0.29,14.42 -3.9,9.41 -9.55,14.88 -17.1,16.41 l -8.37,1.56 c -2.79,0.63 -4.53,1.74 -5.18,3.26 -1.12,2.72 1.77,4.16 8.88,4.16 h 10.94 211.41 l -62.08,43.2 -65.35,158.01 26.48,35.2 h -163.71 -32.39 c -27.11,0 -48.17,-3.28 -63.11,-9.96 -15.01,-6.55 -28.06,-18.37 -39.26,-35.18 -26.68,-39.38 -26.39,-91.98 0.95,-158.03 28.15,-68.14 70.48,-121.29 126.88,-159.55 49.29,-33.56 98.31,-50.29 146.99,-50.29 21.76,0 45.21,3.82 70.1,11.57 25.62,7.87 43,11.81 52.21,11.81 13.43,0 28.53,-3.37 45.18,-10.14 z m 10.89,19.99 -99.33,107.7 -6.23,-3.49 99.82,-108.05 z m -122.62,48.75 -4.08,-4.14 c -17.13,-17.27 -35.89,-25.91 -55.89,-25.91 -24.41,0 -48.96,8.64 -73.82,25.91 -18.07,12.8 -34.34,29.63 -48.48,50.31 -14.27,20.77 -28.39,48.11 -42.43,81.99 -17.83,43.21 -27.26,76.24 -28.15,98.98 -0.89,22.85 6.34,43.54 21.45,61.91 l -1.44,3.51 c -18.6,-14.78 -27.83,-35.55 -27.71,-62.35 0.27,-26.8 9.81,-63.11 28.8,-109.03 20.92,-50.61 46.73,-89.99 77.36,-118.09 30.64,-28.12 63.15,-42.11 97.46,-42.11 29.87,0 49.14,12.36 57.7,37.18 z m 75.09,112.75 -46.7,33.03 -62.12,150.24 27.83,61.25 -126.78,-0.97 -115.79,1.3 c -7.34,0 -12.85,-0.21 -16.48,-0.65 -12.8,-1.52 -23.98,-7.33 -33.36,-17.61 h 6.74 c 11.87,6.45 30.35,9.64 55.63,9.64 l 16.09,-0.33 h 199.6 l -23.93,-49 64.94,-157.03 52.21,-37.19 z m 125.39,-154.38 c 62.72,-29.2 123.23,-43.87 181.52,-43.87 45.29,0 78.62,9.84 99.78,29.54 21.33,19.56 25.59,44.6 13.09,74.9 -10.3,24.83 -28.95,46.68 -56.11,65.82 -27.11,19.14 -59.07,32.94 -95.95,41.44 -2.07,40.69 1.6,80.18 11.04,118.66 9.43,38.39 22.6,67.92 39.6,88.36 l -5.5,1.64 c -36.31,10.93 -73.93,26.25 -112.66,46.16 l -6.12,3.16 2.69,-10.28 c 20.52,-82.68 30.32,-152.68 29.53,-210.19 v -3.16 c -17.5,6.88 -39.54,12.25 -66.03,16.28 l -2.66,0.34 -49.54,119.86 31.5,60.24 h -165.68 l -1.57,-8.62 h 152.58 l -26.11,-49.33 53.42,-129.15 7.19,-0.99 c 25.32,-2.49 47.75,-7.31 67.09,-14.43 -0.27,-2.5 -0.36,-4.14 -0.29,-4.81 l 0.67,-9.29 c 0.03,-0.66 0,-1.86 -0.1,-3.83 -14.76,3.83 -41.46,7.99 -80.04,12.45 l -3.76,0.67 -59.09,142.93 20.71,38.16 h -141.61 l 57.46,-38.16 44.48,-107.6 -2.64,0.3 c -13.57,2.76 -26,5.8 -37.51,9.31 l -2.99,0.87 -0.22,-6.33 c 10.88,-3.63 19.26,-6.1 25.16,-7.44 l 18.76,-4.16 2.81,-0.65 6.84,-16.62 c -12.54,0 -29.45,2.74 -50.56,8.31 l -4.01,1.31 c 1.65,-2.95 6.62,-9.95 15.07,-20.9 0.77,-0.73 4.18,-5.56 10.4,-14.31 0.5,-0.65 1.24,-1.62 2.07,-2.96 9.41,0.66 16.8,0.98 22.13,0.98 5.69,0 11.2,-0.32 16.4,-0.98 l 65.15,-157.57 c -7.36,-6.02 -15.43,-11.03 -24.17,-15.09 z m 100.23,-8.32 -71.37,172.66 c 6.19,0 12.25,-0.55 18.2,-1.53 l 65.23,-157.7 c 12.99,-3.17 27.8,-4.79 44.3,-4.79 41.53,0 64.21,13.64 67.92,41.01 -10.58,-12.82 -20.79,-21.67 -30.79,-26.46 -9.89,-4.83 -23.22,-7.23 -39.94,-7.23 -13.04,0 -24.94,1.3 -35.89,3.94 l -62.51,151.23 3.77,-0.64 c 45.3,-7.79 81.57,-19.81 108.77,-36.43 27.31,-16.52 46.36,-38.05 57.32,-64.52 9.8,-23.73 8.71,-43.31 -3.25,-58.83 -12,-15.43 -31.94,-23.2 -59.94,-23.2 -22.44,0 -42.97,4.16 -61.82,12.49 z m 75.24,192.24 c -4.73,43.97 1.19,87.04 18.02,129.16 10.46,26.22 27.71,49.85 51.79,70.75 -54.3,13 -108.43,32.89 -162.47,59.6 l -3.66,1.95 -4.31,-5.13 c 51.83,-26.69 103.49,-46.36 154.83,-58.94 -44.6,-41.01 -65.83,-106.63 -63.77,-196.74 l 0.31,-5.47 c 75.65,-24.83 123.93,-62.53 144.94,-113.38 8.66,-20.9 9.71,-43.75 3.01,-68.56 13.41,19.65 13.91,44.59 1.36,75.01 -20.31,49.09 -67.03,86.39 -140.05,111.75 z m 461.01,-150.91 -4.16,-3.16 c -15.84,-11.39 -32.22,-17.07 -49.39,-17.07 -56.09,0 -107.02,55.23 -152.68,165.67 -33.36,80.71 -38.14,134.28 -14.22,160.53 l -4.18,3.17 c -15.04,-15.1 -22.16,-35 -21.01,-59.71 1.16,-24.7 10.47,-58.06 27.91,-100.16 48.98,-118.55 104.63,-177.82 166.96,-177.82 28.46,0 45.41,9.5 50.77,28.55 z m -37.35,-75.56 c 51.86,0 85.29,19.68 100.11,58.94 14.77,39.38 8.61,91.84 -18.64,157.7 -25.65,62.1 -61.47,111.63 -107.35,148.6 -46.04,36.97 -94.79,55.44 -146.53,55.44 -40.81,0 -71.69,-12.99 -92.67,-39.04 -30.85,-38.48 -30.72,-95.46 0.43,-170.8 26.71,-64.52 63.87,-115.82 111.6,-153.77 47.8,-38.06 98.83,-57.07 153.05,-57.07 z m -11.38,27.55 c -72.18,0 -134.48,63.42 -186.93,190.27 -48.53,117.33 -37.22,175.95 33.88,175.95 33.14,0 64.8,-15.53 94.9,-46.58 30.16,-31.16 57.6,-76.55 82.35,-136.35 27.96,-67.71 39.16,-114.94 33.59,-141.62 -6.12,-27.77 -25.32,-41.67 -57.79,-41.67 z m 106.81,-11.26 c 24.5,14.77 38.22,40.03 41.22,75.66 2.96,35.66 -5.22,76.89 -24.56,123.68 -28.43,68.67 -68.89,124.22 -121.25,166.56 -52.43,42.3 -107.07,63.41 -163.93,63.41 -36.3,0 -65.11,-12.25 -86.57,-36.84 l 0.7,-1.64 c 18.4,19.44 47.61,29.22 87.53,29.22 53.62,0 106.01,-20.25 157.07,-60.61 51.14,-40.34 89.58,-91.84 115.59,-154.73 19.29,-46.68 28.31,-87.59 27.21,-122.68 -1.24,-35.01 -12.77,-61.15 -34.5,-78.42 z M 2787.49,2229.74 c 0,-13.54 4.21,-23.32 12.08,-30.07 28.89,-27.04 53.57,3.01 131.31,9.02 46.21,3.76 85.62,18.04 122.37,36.07 39.92,19.54 89.3,84.16 89.3,133.01 0,132.27 12.09,116.49 -69.34,116.49 -4.19,-17.29 -65.65,-66.13 -82.46,-86.42 -35.19,-42.84 -79.83,-90.18 -129.74,-113.47 -18.9,-9.03 -73.52,-42.84 -73.52,-64.63 z M 2670.9,1991.5 c 14.17,9.78 28.36,28.55 37.27,42.85 85.1,137.52 -126.06,230.7 -100.85,57.85 3.17,-24.05 6.83,-44.33 17.35,-61.62 14.69,-24.05 24.67,-33.82 46.23,-39.08 z m 116.59,105.97 c 0,-34.57 7.35,-48.09 21.01,-68.4 26.79,2.26 61.45,9.78 90.34,10.53 62.51,1.51 95.06,24.05 133.4,67.64 25.74,28.55 40.97,48.85 40.97,75.14 0,39.09 -43.59,6.78 -58.82,0.76 -173.33,-66.14 -226.9,6.02 -226.9,-85.67 z m -296.25,32.32 c -16.27,-24.81 -53.03,-64.63 -50.42,-83.43 0.53,-3.75 40.98,-75.9 60.94,-75.9 0.53,0 86.14,29.31 76.69,81.91 -7.89,46.6 -39.4,75.91 -87.21,77.42 z m 772.64,-105.97 c 0,-0.75 5.24,-10.52 6.3,-11.28 l 16.28,12.04 -17.34,15.02 c -6.83,-14.27 -5.24,4.5 -5.24,-15.78 z m -963.29,-10.52 c 0,-10.53 36.77,-65.39 58.3,-79.66 61.47,14.27 70.38,42.08 47.8,116.49 -18.37,60.11 -106.1,40.58 -106.1,-36.83 z m -116.61,-27.06 c 0,-36.07 33.63,-70.64 68.81,-73.63 19.97,37.56 15.76,32.31 15.76,78.89 0,63.13 -84.57,94.69 -84.57,-5.26 z m 359.79,-36.82 c 0.54,-11.28 3.68,-30.81 7.89,-39.83 9.98,-23.29 5.77,-3.76 17.85,-24.8 18.92,-31.56 -12.08,-30.81 27.33,-57.12 32.04,7.52 53.03,66.14 57.76,96.19 0,0.76 2.64,22.55 2.64,23.3 0,0.75 0,3.01 0,3.76 -0.53,16.54 -16.3,24.05 -49.92,45.84 -26.78,-17.29 -37.27,-19.53 -63.55,-47.34 z m -471.12,79.65 c 25.72,-48.09 -1.57,-51.84 30.47,-86.41 23.1,-24.8 20.99,-50.35 43.59,-66.89 24.15,35.32 5.77,63.12 -7.36,108.22 -19.43,66.14 -23.11,73.65 -66.7,45.08 z m 1132.92,-105.96 c 9.47,-13.52 18.91,-33.06 32.04,-42.09 19.95,10.53 36.25,26.31 58.29,31.59 v 15.78 z m -251.06,45.11 c 14.17,13.52 16.28,2.99 18.39,28.54 -25.74,9.77 2.62,0.76 -16.3,10.53 -27.83,13.52 -57.76,2.26 -94.01,-6.01 -144.96,-33.06 -78.26,1.49 -115.55,-53.37 -17.85,-26.3 -28.36,-21.03 -28.36,-61.61 0,-30.08 47.8,-22.54 74.06,-21.81 58.83,3.01 40.98,13.54 77.21,29.32 15.23,6.77 23.1,6.01 37.83,15.03 25.72,15.78 26.78,41.33 46.73,59.38 z m -548.34,-87.2 c 0,-15.02 14.19,-19.52 22.58,-30.8 12.6,-18.05 5.26,-18.05 13.14,-34.58 l 49.35,-51.09 c 27.33,14.28 16.82,9.02 32.04,36.07 30.47,54.87 11.05,53.36 1.07,81.16 -17.87,48.1 11.55,37.58 -65.13,78.17 -5.25,-3.01 -11.03,-6.02 -16.8,-9.03 -30.47,-16.53 -36.25,-9.76 -36.25,-69.9 z m -386.05,-53.35 c 0,-48.84 78.79,-90.18 105.57,10.53 -7.88,12.02 -17.85,24.81 -26.25,37.57 -41.51,59.37 -79.32,6.76 -79.32,-48.1 z m 158.63,-5.25 c 0,-35.33 29.93,-54.87 37.27,-84.93 11.05,8.27 13.15,12.79 18.92,29.31 9.98,30.07 14.71,43.59 4.21,73.64 -7.35,21.06 -7.89,11.28 -12.62,29.32 h -32.04 c -9.97,-14.27 -15.74,-21.8 -15.74,-47.34 z m 693.31,0 c -15.77,30.81 -12.62,23.3 -48.85,17.29 -48.32,-6.77 -122.38,11.26 -141.3,-69.9 9.98,-7.52 14.19,-15.78 26.26,-15.78 35.19,0 91.93,0 116.08,15.78 6.31,3.76 49.38,40.58 47.81,52.61 z m -333.54,-63.14 c 0,-15.02 8.41,-55.61 15.77,-64.63 7.87,-9.01 20.99,-7.51 47.8,-25.54 4.72,8.26 16.28,24.05 16.28,31.57 0,35.31 4.19,55.61 -23.12,83.4 -16.8,17.29 -29.41,17.29 -45.69,17.29 -3.68,-15.03 -11.04,-27.04 -11.04,-42.09 z m -481.63,-53.35 c 27.83,-7.51 19.42,-21.03 47.8,-63.12 15.23,3 29.94,15.03 47.79,25.55 3.67,2.24 8.93,5.26 13.13,8.27 l 8.39,7.52 c 7.37,9.01 9.98,11.25 9.98,27.03 0,35.33 -20.46,74.41 -58.29,74.41 -6.29,-17.28 0,-4.5 -16.8,-20.28 -33.62,-30.83 -26.26,-42.09 -52,-48.85 z m 349.28,53.35 c 0,-18.77 0.52,-30.05 5.25,-42.82 7.36,-21.06 5.78,-9.77 16.81,-25.55 12.59,-17.29 14.7,-48.1 41.49,-48.1 13.12,0 42.55,9.77 42.55,26.3 0,49.59 -10.51,44.34 -36.24,75.15 -16.29,19.54 -8.94,11.28 -37.3,15.02 -27.84,3.76 -12.61,2.26 -32.56,15.78 0,50.36 5.78,40.58 -17.35,72.17 -11.55,16.53 -18.89,43.57 -40.43,49.57 -4.73,-18.77 -11.03,-18.02 -11.03,-37.56 0,-30.81 17.33,-15.79 28.9,-60.87 8.39,-34.57 5.76,-31.57 39.91,-39.09 z m 286.25,-100.68 c 34.13,-16.55 48.86,-4.53 85.61,-1.52 9.46,1.52 57.26,-6.75 57.26,43.6 0,60.11 -95.08,4.5 -98.76,2.99 -44.11,-10.51 -56.72,6.03 -44.11,-45.07 z m -238.45,-42.85 c 0,-75.9 32.56,-81.92 34.13,-87.17 0.53,-1.5 2.1,-1.5 3.14,-2.25 l 18.92,12.78 c 0.53,0.74 2.11,1.49 2.64,2.24 1.04,0.75 2.08,2.26 2.61,3.01 22.06,21.04 59.87,58.62 60.4,87.93 -35.18,0 -33.61,-6.77 -58.83,-9.78 -22.56,-3.74 -40.43,-6.76 -63.01,-6.76 z m -481.65,-216.43 c 0,-15.02 56.74,-54.87 60.4,-56.36 25.74,-7.51 22.06,5.25 46.76,-11.28 11.55,-8.26 18.38,-18.03 34.66,-23.28 15.23,-6.02 33.09,-1.52 53.57,-5.27 24.68,-3.76 21.53,-36.08 138.14,-36.08 55.68,0 65.66,-6 105.57,21.04 -8.41,36.08 -16.28,39.09 -42.02,57.87 l -77.21,50.35 c -10.5,8.27 -5.79,3.76 -13.13,13.52 -6.83,9.03 -11.03,17.29 -19.44,27.82 -18.38,24.8 -44.1,48.85 -27.82,78.15 14.17,-3.75 12.08,-3 20.99,-10.51 l 52,-43.59 c 9.99,-7.52 64.61,-46.6 75.12,-46.6 16.28,0 100.85,-16.53 37.81,69.14 l -22.06,36.82 c -14.18,21.8 -24.15,59.37 -26.26,90.19 -1.04,18.02 2.62,38.32 -2.1,55.61 -9.45,31.56 -20.49,6.01 -29.94,86.42 -3.68,31.56 -9.44,19.54 -15.76,42.84 l -46.21,-38.33 c -24.17,-25.55 4.19,-36.08 -79.32,-90.18 l -9.45,-6.02 c -44.12,-26.29 -44.66,-57.11 -19.95,-73.64 20.48,-13.54 4.19,8.26 23.63,-18.03 33.62,-45.1 28.88,-17.29 36.23,-48.86 -14.17,-7.5 4.22,-5.26 -16.27,-5.26 -63.55,0 -44.13,69.14 -110.82,84.17 -8.41,-22.54 -1.58,-1.51 -7.9,-12.77 -15.23,-27.81 -5.77,-46.6 -44.11,-88.67 -76.16,-84.18 -75.11,-40.58 -75.11,-99.21 z m 990.06,-137.52 c -2.09,21.79 4.22,8.27 -7.35,18.77 -14.17,13.54 -39.38,3.02 -59.34,-5.25 -4.21,-1.5 -27.84,-15.02 -30.47,-17.28 -19.44,-15.03 -24.68,-45.09 -24.68,-75.91 0,-14.28 7.87,-15.78 15.75,-21.03 21.02,43.59 -24.68,100.7 106.09,100.7 z m -84.56,-84.92 h 21.02 c -2.64,30.8 -9.98,12.78 5.26,42.08 33.08,0 42.52,-21.79 42.52,5.25 0,15.03 -33.61,10.53 -53.03,10.53 -4.73,-8.27 -15.77,-23.3 -15.77,-31.56 z M 2808.5,964.95 c 29.41,0 49.89,-29.3 80.88,-6.77 38.35,28.58 68.82,76.67 115.56,96.95 28.89,12.79 44.64,18.79 52.51,52.62 42.55,-27.81 5.25,-78.92 -42.02,-89.43 6.32,-24.81 35.21,-28.57 58.83,-28.57 42.02,-0.75 34.67,3.01 64.61,21.05 22.07,12.77 49.89,12.01 66.7,23.3 7.88,4.49 31,38.32 37.3,47.34 -8.41,12.77 -14.18,17.29 -15.77,37.56 39.93,21.06 74.59,25.56 105.59,57.88 -5.79,25.55 -10.51,27.81 -21.03,47.33 4.73,6.03 8.94,10.53 13.67,18.8 26.26,49.6 2.61,72.89 -51.47,62.37 -22.06,-4.5 -25.74,-17.29 -41.5,-17.29 -14.71,0 -30.99,15.78 -68.81,15.78 -5.25,21.06 -15.75,42.09 -42.54,42.09 -25.2,0 -35.18,-1.51 -49.37,-24.81 -26.26,-43.57 -40.98,-6 -74.06,-73.64 -14.17,-29.3 -22.06,-51.09 -45.17,-71.39 l -5.79,-5.26 c -12.59,-11.28 -17.32,-36.07 -37.27,-36.07 -129.21,0 -70.38,18.79 -142.87,36.83 -36.77,9.02 -18.38,2.25 -38.87,24.8 -15.23,16.53 -17.34,9.02 -29.94,27.79 30.46,16.53 22.05,4.53 51.48,12.04 17.85,5.26 14.69,15.78 37.29,26.3 11.03,5.26 36.77,10.52 43.59,19.54 25.73,33.06 -13.66,37.58 58.3,37.58 -1.04,36.81 -7.88,10.51 -10.51,42.06 16.81,12.04 14.19,8.28 28.36,24.81 33.1,39.07 62,6.03 87.21,5.27 43.06,-1.5 90.33,60.86 96.1,75.89 19.44,-14.28 3.15,3.77 12.08,-19.53 l 19.44,-64.63 c 18.39,3.75 41.5,18.79 54.09,30.06 17.88,17.29 4.74,35.33 30.47,54.1 19.95,-37.56 -2.62,-94.68 32.04,-94.68 38.87,0 52.53,50.35 81.42,76.66 37.81,34.56 -6.32,32.31 42.53,63.88 35.72,22.53 24.7,39.82 41.51,63.87 5.25,8.27 22.58,17.29 30.46,22.54 0,84.93 36.76,54.85 36.76,100.71 0,35.31 -4.21,76.64 -21.01,111.22 -22.06,-15.78 1.06,-16.54 -29.41,-33.83 -15.76,-9.01 -29.42,-10.52 -44.65,-19.52 -37.3,-21.06 -41.49,-25.56 -48.85,-61.64 -0.52,-1.51 -2.62,-5.25 -2.62,-8.26 -1.57,-15.78 2.62,-10.53 -16.8,-20.29 -7.37,-3.76 -13.66,-3.76 -24.69,-6.77 -44.12,-12.02 -48.33,-61.62 3.15,-61.62 34.66,0 43.6,31.57 58.29,53.35 15.24,-3.75 36.77,-13.52 36.77,-32.31 0,-18.78 -32.55,-17.27 -78.78,-69.13 -1.04,-0.75 -2.11,-1.51 -2.62,-2.27 l -13.15,-13.52 c -1.04,-0.75 -2.08,-1.5 -3.14,-2.26 -12.08,-7.5 -22.58,-7.5 -39.91,-7.5 -46.75,0 -89.82,73.64 -89.82,116.48 0,90.18 96.64,51.09 127.64,93.93 4.19,6.01 18.38,40.58 20.47,48.85 26.78,0 37.83,6 60.4,13.54 l 45.7,28.54 c 23.1,0 36.25,-18.78 56.21,-3.76 23.1,17.29 6.3,45.85 -12.08,58.62 -4.22,3.01 -4.22,3.01 -9.98,6.03 -35.72,18.02 -43.6,3.75 -44.66,2.99 -50.42,-26.3 -75.63,-54.1 -144.95,-55.6 -31.51,-0.76 -69.87,30.8 -77.74,60.85 -16.81,-1.48 -31.51,-9.75 -31.51,-27.04 0,-83.42 -4.21,-40.58 24.15,-80.41 13.14,-18.03 -14.7,-22.55 -29.41,-25.55 -28.36,-5.25 -38.86,-20.3 -64.08,-31.56 -47.27,-20.29 -14.7,-67.64 -38.86,-98.45 -19.44,-24.8 -41.5,0 -29.94,-49.6 21.53,5.25 36.23,14.27 58.29,15.78 0,-54.1 -10.49,-68.39 -38.86,-97.69 l -16.28,-15.78 c -1.05,-1.51 -4.2,-4.51 -5.25,-6.02 -30.99,-30.07 -94.03,-39.82 -68.81,10.52 4.73,9.02 4.21,9.02 11.55,15.77 17.33,15.05 29.42,15.8 40.98,37.59 l 7.87,34.58 c -6.83,6.76 -11.03,-2.26 -12.08,-3.02 -13.14,-7.51 -3.16,-1.51 -11.55,-9.77 -11.03,-9.02 -15.24,-13.52 -26.26,-21.79 l -49.38,-45.83 c -8.92,-12.03 -9.98,-15.81 -20.48,-27.06 l -26.78,-21.06 c -27.84,-16.53 -69.86,-42.06 -103.48,-26.29 -14.7,7.52 -18.38,17.29 -31.51,27.05 -25.74,17.28 -19.96,19.55 -19.96,59.38 57.25,-5.26 56.73,-56.37 129.74,-18.8 21.54,10.53 47.26,42.84 65.64,61.63 23.12,24.05 44.13,45.84 72.49,64.64 19.44,13.52 44.12,26.3 44.12,56.35 0,20.28 -2.1,32.32 -15.77,42.09 -20.46,-15.03 -13.12,-31.56 -35.7,-48.1 -22.6,-17.28 -50.42,-30.82 -72.49,-50.34 -6.3,-5.28 -4.71,-3.78 -9.97,-10.53 -65.12,-81.16 -58.82,-28.55 -93.5,-28.55 -18.39,0 -16.28,-21.06 -100.85,-21.06 -72.99,0 -51.46,54.86 -117.12,-4.5 -35.19,-31.56 -52,-102.97 -52,-154.06 0,-16.53 53.06,-64.63 68.8,-69.14 -3.14,-4.5 -4.19,-6.76 -8.4,-12.77 -8.4,-10.53 -4.2,-3.76 -9.98,-11.28 l -14.17,-27.8 c -14.71,-41.33 -18.91,-22.55 -36.25,-48.84 3.68,-12.78 49.38,-61.64 62.5,-80.41 28.37,-40.58 60.41,-14.29 106.62,-14.29 3.68,-15.04 11.04,-21.79 11.04,-32.32 0,-65.38 -106.1,-44.33 -106.1,-84.15 0,-14.29 5.26,-26.31 21.02,-26.31 98.21,0 103.99,42.09 148.63,42.09 1.04,-17.29 3.68,-18.04 7.87,-34.57 3.68,-13.52 5.25,-22.55 7.89,-34.58 28.88,-6.77 16.28,0 42.02,0 z m -629.75,281.07 c -98.23,57.11 -76.16,12.02 -125.54,48.85 -26.79,20.28 -36.23,12.76 -65.13,24.8 -19.96,9 -34.14,21.04 -63.55,21.04 -31,0 10.52,-57.87 11.02,-57.87 5.26,-12.77 7.37,-25.55 10.51,-42.1 3.15,-15.77 5.79,-30.05 12.62,-45.83 18.89,-45.83 13.64,-21.04 13.64,-92.44 0,-30.8 -74.06,-148.05 53.05,-148.05 71.96,0 91.39,26.31 111.36,31.59 17.85,5.25 40.43,2.99 59.34,8.99 15.24,5.28 31.51,16.53 46.74,22.56 19.44,6.76 36.77,11.27 53.07,21.03 22.56,14.29 15.22,12.79 45.69,23.3 81.93,27.81 94.53,98.46 24.69,111.98 -96.13,18.79 -38.34,7.52 -131.32,43.59 -17.33,6 -40.98,19.54 -56.19,28.56 z m 582.48,-338.93 c 0,-36.82 39.38,-14.28 53.04,-5.27 -8.91,12.77 -15.75,21.04 -37.29,21.04 -12.07,0 -15.75,-3.74 -15.75,-15.77 z m -879.25,-31.57 c 10.51,-15.78 22.06,-29.3 35.19,-44.33 l 45.17,-50.36 c 16.8,-18.03 11.55,-15.77 21.55,-36.82 7.87,-17.28 23.11,-30.06 28.36,-45.84 7.34,-23.3 3.66,-41.34 15.74,-63.88 21.03,-39.83 47.81,-37.56 55.68,-92.44 3.15,-24.79 12.08,-34.55 26.25,-47.34 37.31,8.27 63.05,40.58 84.04,63.88 l 49.39,51.11 c 19.42,19.54 28.88,25.54 45.16,50.34 6.83,9.78 11.56,21.04 16.81,30.82 10.51,18.04 12.62,15.78 22.6,30.05 29.4,39.83 -25.22,26.31 55.14,87.92 51.99,39.85 87.71,153.33 51.99,180.37 -43.59,32.31 -83.5,-20.29 -123.95,-24.05 -23.63,-1.51 -40.44,2.26 -57.78,-6 -11.02,-4.53 -26.79,-20.31 -37.3,-20.31 -21.53,0 -16.27,21.06 -37.27,21.06 -54.1,0 -31,-21.06 -75.13,-30.06 -25.72,-5.27 -55.67,-3.01 -76.67,-14.29 -97.17,-52.6 -71.95,-1.51 -144.97,-39.83 z m 915.49,-115.73 c 26.78,33.06 27.31,9.01 27.31,67.64 -21.01,-1.51 -40.45,-24.05 -63.04,-48.1 L 2652.49,649.32 c -17.85,-21.03 -13.64,-60.86 37.83,-5.25 z m -653.92,-299.1 -64.6,-62.37 c -9.98,-8.27 -9.44,-7.51 -18.92,-18.04 -40.95,-45.83 -77.2,-60.11 -77.2,-87.17 0,-12.03 4.21,-11.28 10.5,-21.05 34.66,3.02 59.36,46.61 91.39,78.16 8.4,8.28 13.14,12.77 20.49,21.8 l 22.06,20.29 c 68.8,53.35 29.42,18.03 83.5,69.89 38.36,36.07 54.64,42.09 94.55,85.68 l 36.77,36.82 c 1.05,0.75 2.1,1.5 3.14,2.25 8.41,8.26 14.19,12.77 23.13,19.53 76.15,51.11 160.71,162.32 240.03,220.2 17.31,12.78 30.97,21.8 44.64,40.58 17.33,22.53 27.31,21.8 39.39,39.83 -28.36,38.34 -60.93,16.53 -88.76,-6.77 L 2496.5,789.86 c -0.51,-0.75 -1.58,-1.51 -2.62,-2.26 -0.53,-0.75 -1.57,-1.5 -2.64,-2.26 -2.61,-3 -3.66,-3.75 -7.87,-8.27 l -23.1,-19.52 c -27.32,-22.56 -34.15,-33.83 -58.83,-62.39 L 2268.55,578.68 c -8.4,-6.02 -14.19,-10.52 -23.1,-18.79 l -16.28,-21.04 c -13.65,-18.03 -9.46,-6.77 -22.59,-19.54 -19.96,-18.8 -5.79,-15.78 -15.23,-27.06 -15.24,-19.53 -17.35,5.27 -47.8,-31.56 z m 673.36,252.5 -234.26,-336.66 c -8.94,-13.54 -44.13,-82.66 -44.13,-99.2 0,-6.76 18.39,-24.8 36.76,6.01 62,103.7 34.68,60.13 138.67,157.07 l 14.18,12.77 c 6.31,6 13.15,11.28 19.45,18.03 6.29,6.02 7.87,9.03 15.22,15.78 5.77,6.02 5.25,5.26 11.02,10.53 74.59,68.38 45.18,66.87 86.68,108.96 79.3,81.91 38.34,47.34 92.44,118.75 38.34,51.09 57.26,102.2 86.66,162.32 27.83,57.11 -21.53,93.18 -83,45.84 -9.44,-7.52 -52,-43.6 -55.66,-54.85 -4.21,-12.79 -1.05,-21.79 -2.1,-34.58 -2.11,-17.28 -21.53,-42.84 -37.29,-69.13 -5.26,-8.27 -9.98,-13.54 -15.77,-21.05 -10.49,-14.28 -17.86,-24.05 -28.87,-40.59 z m -221.14,30.82 c -55.67,-42.08 -82.46,-78.15 -133.93,-109.72 -18.38,-11.27 -22.06,-27.81 -41.48,-48.09 -5.26,-5.28 -5.26,-4.52 -8.41,-7.52 l -49.91,-55.6 C 2309,444.91 2210.26,341.96 2210.26,245.77 c 0,-19.55 5.26,-24.04 16.27,-32.31 22.07,6.01 25.22,22.54 35.2,44.32 22.06,48.1 96.65,150.32 130.77,197.66 0.54,0.75 1.58,2.25 2.11,3.01 0.53,0.73 1.58,2.24 2.1,3 l 15.24,21.78 c 53.04,72.17 16.8,26.31 63.02,69.9 l 75.1,78.15 c 0.54,0.75 1.59,1.51 2.64,3.01 l 80.88,77.4 c 6.3,6.03 11.03,10.53 19.44,18.04 l 98.22,86.43 c 1.04,0.74 2.09,2.25 2.62,3 l 4.72,6.76 c 0,1.51 1.07,3.01 1.07,3.77 4.18,14.27 -2.64,29.3 -19.97,29.3 -23.63,0 -4.73,5.26 -26.78,-15.03 -7.36,-6.77 -12.61,-10.53 -19.97,-17.28 z m -877.65,88.67 v 5.28 c 39.91,27.04 3.68,33.06 51.46,44.32 45.17,10.53 27.32,17.29 58.3,36.84 24.17,15.78 10.51,10.52 29.42,28.55 48.85,47.33 12.08,8.26 36.77,58.61 25.74,53.37 19.95,51.11 19.95,128.51 0,65.37 3.15,55.61 -22.58,99.2 -12.6,21.79 -6.82,26.31 -14.71,48.1 -7.88,21.78 -13.13,16.53 -26.79,31.56 -48.85,53.36 -15.74,15.77 -51.46,43.59 l -50.96,39.82 c -7.34,9.78 1.06,7.52 -15.74,21.04 -27.85,22.56 5.23,0.76 -13.66,7.51 v 10.53 c 59.34,31.56 150.21,-18.77 210.09,27.81 12.07,9.03 11.02,9.78 26.79,15.78 33.08,13.52 17.32,6.01 57.25,64.63 16.81,24.05 13.64,38.33 8.4,67.64 -8.4,51.09 -18.38,39.08 -56.74,90.92 -6.3,8.26 -4.19,2.26 -7.34,13.54 73.53,17.28 150.21,-21.06 57.25,73.64 l -5.25,5.26 c -44.66,35.32 -9.98,-1.5 -42.55,57.87 -11.55,20.29 -13.66,56.36 -52,59.38 0,30.8 26.79,57.11 -20.49,100.69 -20.99,19.54 -18.38,31.55 -32.55,52.61 19.43,12.77 14.17,20.28 51.99,15.03 72.49,-8.28 115.56,-15.03 154.43,42.83 21.53,-5.26 0.51,0 15.23,-5.26 l 19.42,-7.52 c 13.66,-7.51 19.96,-14.28 23.64,-29.3 27.85,0 24.16,2.99 35.19,12.77 16.28,14.27 14.71,11.28 34.15,18.79 1.57,0.75 2.62,1.51 3.68,2.26 1.57,0 2.62,0.74 3.66,1.49 1.06,0 2.64,0.75 3.17,1.51 1.57,0 4.72,1.5 6.3,1.5 l 5.77,-0.75 c 1.57,-0.75 33.09,-15.03 51.99,-15.78 31.53,-0.75 30.47,16.53 41.5,30.8 26.79,35.34 63.03,-6 104,2.26 19.43,3.76 48.85,41.34 76.14,66.89 44.13,-3.76 24.17,-21.05 84.57,-21.05 7.36,27.06 20.49,20.3 38.34,35.32 20.49,18.05 11.55,27.06 47.27,32.32 36.25,5.25 38.88,-8.27 59.37,15.03 22.57,25.56 16.81,18.04 61.44,18.04 5.26,7.52 9.98,17.28 18.38,24.05 l 55.15,39.82 c 3.16,1.51 11.57,3.77 15.76,5.26 21.53,8.27 26.78,27.05 53.57,57.87 l 29.94,28.56 c 50.96,42.84 38.36,56.36 61.47,81.17 53.03,57.86 49.35,57.86 74.06,116.46 3.14,7.54 10.48,22.56 16.26,31.59 6.84,9.74 13.14,18.77 19.44,27.79 h 5.25 c 23.13,-34.58 43.59,-30.81 47.8,-116.49 4.19,-84.91 42.55,-38.32 16.81,-133.01 -7.36,-26.3 -11.55,-39.83 -11.55,-72.89 0,-32.32 -3.68,-51.11 -10.51,-74.4 -7.87,-27.82 -24.17,-35.32 -29.4,-55.61 -11.05,-38.32 11.01,-33.06 -16.81,-67.64 -17.34,-20.28 -5.79,0.75 -14.19,-27.8 -5.79,-19.54 -6.3,-21.81 -19.43,-33.82 l -16.29,-15.78 c -6.84,-12.03 -3.16,-17.28 -9.98,-32.31 -14.17,-32.31 -10.51,1.49 -37.3,-68.39 -4.72,-12.02 -0.51,-3.75 -8.4,-12.77 -40.96,-47.37 2.11,-14.29 -48.85,-78.17 -18.38,-22.55 -32.02,-56.36 -43.07,-84.16 -8.92,-24.05 -3.14,-7.51 -17.33,-24.8 -16.28,-20.3 -8.91,-47.34 -3.66,-70.65 h 15.74 c 11.05,46.6 24.7,17.29 45.18,50.35 32.56,53.36 33.09,17.29 38.86,61.64 6.83,51.09 3.68,38.32 36.25,64.63 7.34,6 18.39,17.28 23.64,24.05 9.45,12.76 8.4,20.27 21.54,30.8 25.72,20.28 37.8,3.75 55.14,45.83 32.57,81.16 17.85,27.81 42.01,58.63 16.82,21.03 4.2,56.36 27.83,72.89 11.05,7.52 17.35,5.25 31.54,16.53 12.06,9.02 13.64,15.79 27.83,24.8 63.01,-5.25 29.93,-17.28 47.8,-57.86 13.12,-29.3 43.06,-15.78 47.25,-63.88 32.04,8.27 7.37,20.29 47.81,21.04 23.1,-44.34 2.1,-32.32 43.59,-87.93 l 42.02,-48.84 c 53.04,-39.83 -14.7,29.32 34.66,-33.82 18.38,-23.3 -21.54,16.53 14.72,-12.02 23.63,-18.79 5.76,-1.5 13.64,-18.04 l 4.74,-11.28 v -31.55 l -30.47,-59.37 c -11.03,-25.55 -1.57,-48.09 -12.6,-72.14 0,0 -5.26,-10.52 -7.35,-13.53 -32.58,-57.88 -10.52,-81.92 -24.17,-124 -10.51,-31.57 -22.06,-26.29 -49.89,-39.83 -33.1,-16.54 -15.76,-27.04 -25.74,-59.36 -8.41,-27.06 -28.9,-12.79 -29.94,-55.61 -1.05,-33.82 15.77,-33.06 37.29,-47.37 0,-57.11 18.9,-72.89 -16.8,-110.46 -31.53,-33.06 -20.49,-48.09 -26.79,-84.17 -5.25,-30.05 -8.94,-17.28 -20.49,-27.04 -28.88,-25.56 0.54,-18.79 -47.27,-42.09 -43.59,-21.79 -13.13,-29.31 -48.85,-67.64 -29.4,-32.32 2.11,-44.32 -39.91,-76.64 -14.71,-11.28 -22.06,-11.28 -33.08,-25.56 -40.44,-51.86 -35.73,-18.79 -73.02,-42.84 -18.91,-12.77 -18.38,-23.29 -28.36,-46.58 0,0 -4.21,-9.02 -4.73,-10.53 -3.14,-6.76 -5.25,-10.53 -8.93,-18.05 L 3035.92,738 c -28.9,-45.08 -92.44,-138.28 -126.06,-170.6 L 2733.39,395.31 c -11.56,-11.26 -17.85,-18.78 -29.42,-29.31 l -31.5,-26.3 c -47.27,-45.08 -131.84,-133.75 -149.69,-199.89 -74.07,6.01 -23.13,245.74 82.97,329.9 29.43,23.3 19.95,102.22 12.62,135.28 -27.32,6.77 -24.69,10.51 -44.13,-8.26 L 2446.08,454.68 c -75.64,-89.43 -130.25,-184.11 -183.83,-287.82 -4.21,-8.28 -5.78,-11.27 -10.5,-21.04 L 2205.01,44.37 h -21.03 c -8.39,36.06 -16.27,35.31 -15.74,84.16 0,69.15 -12.61,121.74 -2.11,187.13 8.41,48.09 17.85,38.32 17.85,78.14 -28.87,-0.74 -25.2,-8.25 -44.63,-24.04 -6.83,-6.01 -4.21,-3.76 -11.56,-9.76 L 1979.68,190.16 c -11.02,-15.04 -18.39,-23.3 -30.47,-38.34 -0.53,-1.51 -13.66,-18.02 -13.66,-18.02 -12.59,-12.79 2.64,-8.26 -21.53,-9.78 -3.68,42.84 -11.55,106.72 14.71,149.55 27.31,44.34 11.55,37.58 26.78,72.89 8.94,20.3 18.38,20.3 25.21,44.35 l 13.14,114.23 -12.08,120.24 c -3.68,19.54 -17.87,29.3 -24.17,45.08 -7.34,18.03 -4.19,39.09 -13.12,54.87 -12.62,22.54 -3.68,3.74 -15.24,16.53 -23.63,25.55 -2.1,24.8 -26.78,42.83 l -63.56,36.83 c -43.59,8.27 -26.77,-10.52 -120.79,11.26 z"
   id="path1" />
 </g></g></g></svg>
