<svg width="38" height="38" viewBox="0 0 38 38" fill="none" xmlns="http://www.w3.org/2000/svg">
<g clip-path="url(#clip0_117_109)">
<path d="M33.25 15.8335C33.25 26.9168 19 36.4168 19 36.4168C19 36.4168 4.75 26.9168 4.75 15.8335C4.75 12.0542 6.25133 8.42962 8.92373 5.75722C11.5961 3.08483 15.2207 1.5835 19 1.5835C22.7793 1.5835 26.4039 3.08483 29.0763 5.75722C31.7487 8.42962 33.25 12.0542 33.25 15.8335Z" stroke="#55E0B0" stroke-width="4" stroke-linecap="round" stroke-linejoin="round"/>
<path d="M19 20.5835C21.6234 20.5835 23.75 18.4569 23.75 15.8335C23.75 13.2101 21.6234 11.0835 19 11.0835C16.3766 11.0835 14.25 13.2101 14.25 15.8335C14.25 18.4569 16.3766 20.5835 19 20.5835Z" stroke="#55E0B0" stroke-width="4" stroke-linecap="round" stroke-linejoin="round"/>
</g>
<defs>
<clipPath id="clip0_117_109">
<rect width="38" height="38" fill="white"/>
</clipPath>
</defs>
</svg>
