<svg width="38" height="38" viewBox="0 0 38 38" fill="none" xmlns="http://www.w3.org/2000/svg">
<g clip-path="url(#clip0_117_84)">
<path d="M19.3452 34.0742C16.1562 34.0742 13.1927 33.1256 10.7129 31.5007L4.68718 33.4167L6.64566 27.6406C4.76702 25.0766 3.65863 21.9209 3.65863 18.5163C3.65863 18.0044 3.68681 17.502 3.73378 17.0089C4.49932 9.13371 11.2107 2.95378 19.3452 2.95378C27.583 2.95378 34.3508 9.28868 34.9801 17.3C35.013 17.6992 35.0318 18.1078 35.0318 18.5163C35.0318 27.1006 27.9963 34.0788 19.3452 34.0788V34.0742ZM37.9906 18.042C37.737 8.03955 29.4898 0 19.3452 0C9.31801 0 1.14127 7.8517 0.709183 17.6945C0.695093 17.9669 0.690397 18.2346 0.690397 18.5116C0.690397 22.0101 1.66728 25.2785 3.36745 28.068L0 38L10.3278 34.7175C13.0001 36.1873 16.0764 37.0185 19.3452 37.0185C29.6495 37.0185 38 28.7301 38 18.5069C38 18.3473 37.9953 18.1923 37.9906 18.0373V18.042ZM27.8883 22.2449C27.4327 22.0195 25.183 20.9207 24.7604 20.7704C24.3424 20.6201 24.0371 20.545 23.7318 20.9958C23.4265 21.4513 22.553 22.4703 22.2853 22.7709C22.0176 23.0761 21.7545 23.1137 21.2943 22.8883C20.8387 22.6629 19.364 22.1839 17.6169 20.6342C16.2549 19.432 15.339 17.9481 15.0713 17.4926C14.8036 17.0371 15.0431 16.7929 15.2733 16.5675C15.4799 16.3655 15.7288 16.0368 15.959 15.7739C16.0247 15.6987 16.0764 15.6236 16.1233 15.5578C16.2361 15.3888 16.3065 15.2338 16.4145 15.0178C16.5695 14.7173 16.4897 14.4496 16.377 14.2242C16.2642 13.9988 15.3484 11.7635 14.968 10.8571C14.5876 9.94612 14.2071 10.1011 13.9394 10.1011C13.6717 10.1011 13.3665 10.0635 13.0612 10.0635C12.7559 10.0635 12.2628 10.1762 11.8401 10.6317C11.4221 11.0872 10.2385 12.1814 10.2385 14.4167C10.2385 14.9427 10.3325 15.4639 10.4734 15.9617C10.9336 17.563 11.9293 18.8779 12.1031 19.108C12.3285 19.4086 15.2686 24.1421 19.9135 25.9595C24.5631 27.7768 24.5631 27.171 25.4038 27.0959C26.2398 27.0208 28.109 26.0017 28.4894 24.9404C28.8699 23.8838 28.8699 22.9728 28.7571 22.7803C28.6397 22.5924 28.3391 22.4797 27.8789 22.2496L27.8883 22.2449Z" fill="#55E0B0"/>
</g>
<defs>
<clipPath id="clip0_117_84">
<rect width="38" height="38" fill="white"/>
</clipPath>
</defs>
</svg>
